<svg width="186" height="26" viewBox="0 0 186 26" fill="none" xmlns="http://www.w3.org/2000/svg">
<path d="M17.3563 9.5459C17.1507 9.29001 17.0739 8.95729 17.1468 8.63342L17.3115 7.90222H17.259C16.3416 7.90222 15.5977 8.64613 15.5977 9.56359V11.3714L17.5276 9.71779C17.4646 9.66749 17.4066 9.61001 17.3557 9.5459H17.3563Z" fill="#7D69F9"/>
<path d="M25.0841 7.90168L23.0254 11.0779H28.3499C28.4456 11.0779 28.5235 11.0006 28.5235 10.9044V8.07467C28.5235 7.97905 28.4461 7.90112 28.3499 7.90112H25.0841V7.90168Z" fill="#7D69F9"/>
<path d="M14.2614 15.716C14.2614 14.4404 12.6012 13.5059 11.2637 13.5059H0.173543C0.0779292 13.5059 0 13.5832 0 13.6794V16.5069C0 16.6025 0.0773765 16.6805 0.173543 16.6805H11.2637C12.5796 16.6805 14.21 17.5874 14.2603 18.8326V18.8337C14.2603 18.8337 14.2614 18.8359 14.2614 18.8365C14.2614 18.8354 14.2614 18.8343 14.2626 18.8337V18.8326C14.3128 17.5874 15.9433 16.6805 17.2592 16.6805H28.3493C28.445 16.6805 28.5229 16.6031 28.5229 16.5069V13.6794C28.5229 13.5838 28.4455 13.5059 28.3493 13.5059H17.2592C15.9217 13.5059 14.2614 14.441 14.2614 15.716Z" fill="#7D69F9"/>
<path d="M15.5977 20.5776V23.0691C15.5977 23.0287 15.7347 22.9221 15.7646 22.8933C15.8248 22.8353 15.8873 22.7795 15.9525 22.7264C16.0829 22.6203 16.2233 22.5263 16.3703 22.4451C16.629 22.3025 16.9092 22.2008 17.1993 22.1444C17.5227 22.082 17.8509 22.0925 18.1787 22.0925H28.3497C28.4453 22.0925 28.5233 22.0151 28.5233 21.9189V19.0892C28.5233 18.9936 28.4459 18.9156 28.3497 18.9156H17.2596C16.3421 18.9156 15.5982 19.6596 15.5982 20.577L15.5977 20.5776Z" fill="#7D69F9"/>
<path d="M0.657012 11.0782H10.345C10.6727 11.0782 11.001 11.0677 11.3244 11.1302C11.614 11.186 11.8947 11.2883 12.1534 11.4309C12.3004 11.5121 12.4408 11.6066 12.5712 11.7122C12.6364 11.7652 12.6989 11.8205 12.7591 11.8791C12.789 11.9078 12.926 12.0145 12.926 12.0548V9.56334C12.926 8.64589 12.1821 7.90198 11.2647 7.90198H0.174518C0.078904 7.90198 0.000976562 7.97935 0.000976562 8.07552V10.9053C0.000976562 11.0009 0.0783514 11.0788 0.174518 11.0788H0.657565L0.657012 11.0782Z" fill="#7D69F9"/>
<path d="M11.2637 18.916H0.173543C0.0779292 18.916 0 18.9934 0 19.0896V21.9193C0 22.0149 0.0773765 22.0928 0.173543 22.0928H10.3446C10.6723 22.0928 11.0006 22.0823 11.3239 22.1448C11.6135 22.2006 11.8943 22.3029 12.153 22.4455C12.3 22.5267 12.4404 22.6212 12.5708 22.7268C12.636 22.7798 12.6985 22.8351 12.7587 22.8937C12.7885 22.9224 12.9256 23.0291 12.9256 23.0694V20.5779C12.9256 19.6605 12.1817 18.9166 11.2642 18.9166L11.2637 18.916Z" fill="#7D69F9"/>
<path d="M17.9047 8.80366L18.4949 6.17952C18.5425 5.96784 18.674 5.78435 18.8597 5.67105L27.9596 0.116032C28.299 -0.0912241 28.64 0.379109 28.3371 0.637212L18.4037 9.10488C18.1788 9.29666 17.8394 9.09161 17.9047 8.80366Z" fill="#7D69F9"/>
<path d="M26.8975 3.67698L22.1881 10.9442L18.185 11.5505L14.671 13.9762C14.3582 14.1918 14.0167 13.7485 14.3052 13.5015L26.3387 3.18841C26.6676 2.90654 27.133 3.31387 26.8975 3.67753V3.67698Z" fill="#7D69F9"/>
<path d="M0.731624 5.90924C0.745441 6.0358 0.770312 6.09936 0.822817 6.16955C0.907377 6.27511 1.05494 6.3348 1.23401 6.3348C1.50483 6.3348 1.66677 6.21542 1.66677 6.01811C1.66677 5.90924 1.61039 5.81418 1.5192 5.77217C1.44514 5.7368 1.35726 5.71248 0.991938 5.62792C0.668618 5.55773 0.555871 5.51517 0.42599 5.42398C0.204364 5.26923 0.0849855 5.03379 0.0849855 4.7486C0.0849855 4.20697 0.521052 3.86597 1.21356 3.86597C1.66013 3.86597 2.00114 4.00303 2.19126 4.26666C2.27914 4.38273 2.32114 4.48829 2.36701 4.68891L1.62144 4.7696C1.57944 4.54079 1.45288 4.44628 1.18538 4.44628C0.970936 4.44628 0.812869 4.56235 0.812869 4.72428C0.812869 4.82266 0.865373 4.89672 0.97812 4.94923C1.02491 4.97023 1.18667 5.00892 1.46338 5.06529C1.73088 5.12166 1.89945 5.18135 2.03319 5.26591C2.28632 5.42398 2.41289 5.65998 2.41289 5.9833C2.41289 6.24693 2.32833 6.47187 2.16694 6.63049C1.963 6.82724 1.6535 6.92949 1.2423 6.92949C0.943301 6.92949 0.64817 6.86593 0.458047 6.75705C0.282293 6.65868 0.151859 6.50724 0.0783519 6.30717C0.0429802 6.22261 0.0258473 6.14192 0.000976562 5.97998L0.732177 5.90979L0.731624 5.90924Z" fill="#7D69F9"/>
<path d="M4.65187 4.95588C4.58499 4.63587 4.39874 4.4778 4.09642 4.4778C3.66754 4.4778 3.41772 4.8155 3.41772 5.39581C3.41772 5.97613 3.67804 6.31714 4.1141 6.31714C4.30754 6.31714 4.4728 6.23644 4.57504 6.09551C4.63473 6.01095 4.6596 5.94076 4.6806 5.79319L5.41181 5.90207C5.34493 6.20107 5.26755 6.37351 5.11999 6.54539C4.90168 6.79521 4.56067 6.92896 4.13511 6.92896C3.70954 6.92896 3.34366 6.79521 3.0944 6.54208C2.83409 6.27845 2.68652 5.8667 2.68652 5.39581C2.68652 4.92493 2.83409 4.51318 3.11209 4.23905C3.35472 4.0036 3.71009 3.87317 4.12129 3.87317C4.57504 3.87317 4.92987 4.02792 5.15868 4.33411C5.27142 4.47836 5.33111 4.60824 5.37699 4.81605L4.65242 4.95643L4.65187 4.95588Z" fill="#7D69F9"/>
<path d="M6.51887 3.93604C6.49787 4.08029 6.49069 4.19966 6.49069 4.45666V6.34131C6.49069 6.58394 6.49787 6.71438 6.51887 6.86194H5.74512C5.76612 6.72488 5.7733 6.57731 5.7733 6.34131V4.45666C5.7733 4.19303 5.76612 4.09079 5.74512 3.93604H6.51887Z" fill="#7D69F9"/>
<path d="M82.478 20.0059L76.2808 6.61865H79.7041L84.3242 17.1855H84.4077L89.0371 6.61865H92.4604L86.2539 20.0059H82.478ZM94.5107 20.0059V9.86572H97.4702V20.0059H94.5107ZM95.9951 8.46484C95.5127 8.46484 95.1169 8.32259 94.8076 8.03809C94.5046 7.75358 94.353 7.40413 94.353 6.98975C94.353 6.56917 94.5046 6.21973 94.8076 5.94141C95.1169 5.6569 95.5127 5.51465 95.9951 5.51465C96.4775 5.51465 96.8703 5.6569 97.1733 5.94141C97.4826 6.21973 97.6372 6.56917 97.6372 6.98975C97.6372 7.40413 97.4826 7.75358 97.1733 8.03809C96.8703 8.32259 96.4775 8.46484 95.9951 8.46484ZM105.894 20.2471C104.682 20.2471 103.643 20.1234 102.777 19.876C101.917 19.6224 101.243 19.2637 100.754 18.7998C100.272 18.3359 99.9906 17.7793 99.9102 17.1299L99.9009 17.0649H102.805L102.823 17.1206C102.941 17.5288 103.259 17.8381 103.779 18.0483C104.298 18.2586 105.016 18.3638 105.931 18.3638C106.482 18.3638 106.945 18.3174 107.323 18.2246C107.706 18.1257 107.997 17.9865 108.195 17.8071C108.399 17.6216 108.501 17.3989 108.501 17.1392V17.1299C108.501 16.8145 108.365 16.5763 108.093 16.4155C107.821 16.2485 107.344 16.1279 106.664 16.0537L103.909 15.7754C103.08 15.6826 102.393 15.5125 101.849 15.2651C101.305 15.0177 100.897 14.6961 100.625 14.3003C100.359 13.8983 100.226 13.422 100.226 12.8716V12.8623C100.226 12.1882 100.439 11.6099 100.866 11.1274C101.292 10.645 101.902 10.2739 102.693 10.0142C103.485 9.75439 104.431 9.62451 105.532 9.62451C106.689 9.62451 107.672 9.7513 108.482 10.0049C109.299 10.2585 109.93 10.6172 110.375 11.0811C110.826 11.5387 111.083 12.083 111.145 12.7139V12.7974H108.408L108.399 12.751C108.319 12.3675 108.031 12.0645 107.536 11.8418C107.048 11.6191 106.389 11.5078 105.56 11.5078C105.041 11.5078 104.598 11.5573 104.233 11.6562C103.868 11.749 103.59 11.8851 103.398 12.0645C103.207 12.2438 103.111 12.4603 103.111 12.7139V12.7231C103.111 12.9272 103.17 13.1004 103.287 13.2427C103.411 13.3787 103.606 13.4901 103.872 13.5767C104.138 13.6632 104.487 13.7313 104.92 13.7808L107.722 14.0591C109.039 14.1951 109.992 14.4951 110.579 14.959C111.167 15.4167 111.46 16.0568 111.46 16.8794V16.8979C111.46 17.5907 111.238 18.1875 110.792 18.6885C110.347 19.1895 109.71 19.576 108.881 19.8481C108.053 20.1141 107.057 20.2471 105.894 20.2471ZM113.9 20.0059V9.86572H116.86V20.0059H113.9ZM115.385 8.46484C114.902 8.46484 114.507 8.32259 114.197 8.03809C113.894 7.75358 113.743 7.40413 113.743 6.98975C113.743 6.56917 113.894 6.21973 114.197 5.94141C114.507 5.6569 114.902 5.51465 115.385 5.51465C115.867 5.51465 116.26 5.6569 116.563 5.94141C116.872 6.21973 117.027 6.56917 117.027 6.98975C117.027 7.40413 116.872 7.75358 116.563 8.03809C116.26 8.32259 115.867 8.46484 115.385 8.46484ZM125.71 20.2471C124.412 20.2471 123.28 20.0306 122.315 19.5977C121.356 19.1647 120.611 18.5524 120.079 17.7607C119.553 16.9691 119.291 16.0321 119.291 14.9497V14.9219C119.291 13.8395 119.556 12.9025 120.088 12.1108C120.62 11.3192 121.366 10.7069 122.324 10.2739C123.289 9.84098 124.418 9.62451 125.71 9.62451C127.003 9.62451 128.129 9.84098 129.087 10.2739C130.046 10.7069 130.791 11.3192 131.323 12.1108C131.855 12.9025 132.121 13.8395 132.121 14.9219V14.9497C132.121 16.0321 131.855 16.9691 131.323 17.7607C130.798 18.5524 130.052 19.1647 129.087 19.5977C128.129 20.0306 127.003 20.2471 125.71 20.2471ZM125.71 18.0947C126.391 18.0947 126.985 17.971 127.492 17.7236C127.999 17.4762 128.395 17.1175 128.679 16.6475C128.964 16.1774 129.106 15.6115 129.106 14.9497V14.9219C129.106 14.2601 128.964 13.6942 128.679 13.2241C128.395 12.7541 127.996 12.3953 127.482 12.1479C126.975 11.9006 126.385 11.7769 125.71 11.7769C125.03 11.7769 124.433 11.9006 123.92 12.1479C123.413 12.3953 123.017 12.7541 122.732 13.2241C122.448 13.6942 122.306 14.2601 122.306 14.9219V14.9497C122.306 15.6115 122.445 16.1774 122.723 16.6475C123.008 17.1175 123.407 17.4762 123.92 17.7236C124.433 17.971 125.03 18.0947 125.71 18.0947ZM134.533 20.0059V9.86572H137.493V11.8418H137.576C137.935 11.1553 138.473 10.6141 139.19 10.2183C139.908 9.82243 140.771 9.62451 141.779 9.62451C143.245 9.62451 144.38 10.0234 145.184 10.8213C145.988 11.6191 146.39 12.751 146.39 14.2168V20.0059H143.439V14.8105C143.439 13.8395 143.204 13.1066 142.734 12.6118C142.271 12.1108 141.578 11.8604 140.656 11.8604C140.013 11.8604 139.453 11.9871 138.977 12.2407C138.507 12.4943 138.142 12.853 137.882 13.3169C137.623 13.7808 137.493 14.3281 137.493 14.959V20.0059H134.533ZM153.125 20.1821C152.234 20.1821 151.455 20.0615 150.787 19.8203C150.119 19.5791 149.6 19.2235 149.229 18.7534C148.864 18.2834 148.681 17.7051 148.681 17.0186V17.0093C148.681 16.4217 148.833 15.9084 149.136 15.4692C149.439 15.0301 149.918 14.6868 150.574 14.4395C151.229 14.1921 152.077 14.056 153.116 14.0312L158.868 13.9106V15.5156L153.58 15.6455C152.875 15.6641 152.364 15.7785 152.049 15.9888C151.74 16.1929 151.585 16.4805 151.585 16.8516V16.8701C151.585 17.334 151.801 17.6803 152.234 17.9092C152.674 18.138 153.249 18.2524 153.96 18.2524C154.653 18.2524 155.256 18.1566 155.769 17.9648C156.289 17.7669 156.691 17.4948 156.975 17.1484C157.26 16.7959 157.402 16.3846 157.402 15.9146V13.5859C157.402 12.9736 157.164 12.5036 156.688 12.1758C156.217 11.8418 155.543 11.6748 154.665 11.6748C153.904 11.6748 153.295 11.7923 152.837 12.0273C152.386 12.2562 152.095 12.5747 151.965 12.9829L151.947 13.0479H149.145L149.164 12.9458C149.281 12.2902 149.575 11.715 150.045 11.2202C150.515 10.7192 151.143 10.3296 151.928 10.0513C152.714 9.76676 153.645 9.62451 154.721 9.62451C155.914 9.62451 156.929 9.78223 157.764 10.0977C158.605 10.4069 159.245 10.8553 159.684 11.4429C160.123 12.0304 160.343 12.7417 160.343 13.5767V20.0059H157.402V18.3359H157.318C157.083 18.7194 156.759 19.0503 156.344 19.3286C155.936 19.6007 155.457 19.811 154.906 19.9595C154.362 20.1079 153.768 20.1821 153.125 20.1821ZM163.237 20.0059V9.86572L166.188 9.88428V11.8604H166.28C166.497 11.1676 166.893 10.6296 167.468 10.2461C168.043 9.86263 168.751 9.6709 169.592 9.6709C169.796 9.6709 169.991 9.68327 170.177 9.70801C170.368 9.72656 170.535 9.75439 170.678 9.7915V12.1851C170.486 12.1418 170.279 12.1108 170.056 12.0923C169.84 12.0737 169.617 12.0645 169.388 12.0645C168.739 12.0645 168.176 12.182 167.7 12.417C167.223 12.6458 166.852 12.9891 166.586 13.4468C166.32 13.9045 166.188 14.4704 166.188 15.1445V20.0059H163.237ZM174.75 23.4756C174.454 23.4756 174.169 23.4601 173.897 23.4292C173.625 23.4045 173.381 23.3674 173.164 23.3179V21.2305C173.343 21.2676 173.541 21.2954 173.758 21.314C173.974 21.3387 174.191 21.3511 174.407 21.3511C174.914 21.3511 175.347 21.2676 175.706 21.1006C176.065 20.9398 176.359 20.6676 176.587 20.2842L176.792 19.9131L171.847 9.86572H174.973L178.712 18.0947L178.127 17.4639H178.897L178.322 18.0947L181.875 9.86572H184.956L180.298 19.6348C179.841 20.5811 179.358 21.3325 178.851 21.8892C178.35 22.452 177.769 22.8571 177.107 23.1045C176.451 23.3519 175.666 23.4756 174.75 23.4756Z" fill="black"/>
<path d="M43.3842 15.9994C43.4528 16.6169 43.5724 16.9257 43.8302 17.2677C44.2419 17.7823 44.9613 18.0734 45.8356 18.0734C47.1559 18.0734 47.944 17.4902 47.944 16.5307C47.944 15.9994 47.6695 15.5368 47.2235 15.3309C46.8638 15.1594 46.4345 15.0398 44.6516 14.6282C43.0745 14.2851 42.5256 14.0793 41.8914 13.6343C40.8113 12.8795 40.2281 11.7308 40.2281 10.3429C40.2281 7.70228 42.3541 6.03992 45.7317 6.03992C47.9087 6.03992 49.572 6.70839 50.4973 7.99437C50.9256 8.55993 51.1315 9.07452 51.3549 10.0517L47.7205 10.4458C47.5147 9.33132 46.8971 8.86868 45.5945 8.86868C44.5487 8.86868 43.7773 9.43424 43.7773 10.2233C43.7773 10.7036 44.0341 11.0633 44.583 11.3201C44.8117 11.4227 45.6004 11.6112 46.9491 11.8856C48.2517 12.1601 49.0751 12.4512 49.7259 12.8629C50.9599 13.6343 51.5774 14.783 51.5774 16.3601C51.5774 17.6461 51.1658 18.7429 50.3777 19.5143C49.3838 20.4739 47.8744 20.9718 45.8689 20.9718C44.4114 20.9718 42.9716 20.663 42.0453 20.1318C41.1877 19.6515 40.5535 18.9144 40.1938 17.9372C40.0222 17.5255 39.937 17.1315 39.8164 16.3425L43.3823 15.9994H43.3842Z" fill="black"/>
<path d="M62.5001 11.3534C62.1747 9.79298 61.2661 9.02159 59.7909 9.02159C57.6992 9.02159 56.4819 10.6673 56.4819 13.4961C56.4819 16.3248 57.7502 17.9882 59.8762 17.9882C60.8191 17.9882 61.6248 17.5941 62.1218 16.908C62.4129 16.4964 62.5334 16.1533 62.6363 15.4339L66.2022 15.9651C65.8768 17.4226 65.4994 18.2626 64.779 19.1026C63.7165 20.32 62.0531 20.9708 59.9781 20.9708C57.9031 20.9708 56.1202 20.319 54.9038 19.085C53.6355 17.799 52.915 15.7936 52.915 13.4961C52.915 11.1985 53.6355 9.19312 54.9891 7.85519C56.1721 6.70643 57.9041 6.07227 59.9095 6.07227C62.1208 6.07227 63.8527 6.82699 64.9672 8.31783C65.5161 9.02061 65.8072 9.65478 66.0297 10.6663L62.4981 11.3524L62.5001 11.3534Z" fill="black"/>
<path d="M71.6027 6.38098C71.4998 7.08376 71.4655 7.66696 71.4655 8.91864V18.1077C71.4655 19.2908 71.4998 19.9249 71.6027 20.6454H67.8311C67.934 19.9769 67.9683 19.2565 67.9683 18.1077V8.91864C67.9683 7.63266 67.934 7.13571 67.8311 6.38098H71.6027Z" fill="black"/>
</svg>
