<svg width="320" height="342" viewBox="0 0 320 342" fill="none" xmlns="http://www.w3.org/2000/svg">
<path d="M157.095 41.1532C159.179 38.0246 157.945 33.546 154.339 31.15C150.733 28.7541 146.121 29.3481 144.036 32.4767C141.952 35.6053 143.186 40.0839 146.792 42.4799C150.398 44.8758 155.01 44.2818 157.095 41.1532Z" fill="#65F4FD"/>
<path d="M232.887 301.831C234.971 298.702 233.737 294.223 230.131 291.828C226.525 289.432 221.913 290.026 219.828 293.154C217.744 296.283 218.978 300.761 222.584 303.157C226.19 305.553 230.802 304.959 232.887 301.831Z" fill="#E6E6E6"/>
<path d="M20.5829 78.2718C22.667 75.1432 21.4334 70.6646 17.8275 68.2687C14.2216 65.8727 9.60889 66.4667 7.52471 69.5953C5.44054 72.724 6.67415 77.2026 10.2801 79.5985C13.886 81.9945 18.4987 81.4005 20.5829 78.2718Z" fill="#E6E6E6"/>
<path d="M288.171 263.736H31.8301C23.3914 263.726 15.3011 260.374 9.3341 254.414C3.36705 248.455 0.0105597 240.375 0.000976562 231.947V121.901C0.0105049 113.473 3.36698 105.393 9.33404 99.4337C15.3011 93.4743 23.3914 90.1221 31.8301 90.1126C113.627 67.4803 199.416 69.6006 288.171 90.1126C296.61 90.1221 304.7 93.4743 310.668 99.4337C316.635 105.393 319.991 113.473 320.001 121.901V231.947C319.991 240.375 316.634 248.455 310.667 254.414C304.7 260.374 296.61 263.726 288.171 263.736Z" fill="#F2F2F2"/>
<path d="M27.3132 235.695C27.2122 235.695 27.1121 235.675 27.0188 235.636C26.9254 235.598 26.8406 235.541 26.7692 235.47C26.6978 235.399 26.6411 235.314 26.6024 235.221C26.5638 235.127 26.5439 235.027 26.5439 234.927V118.922C26.5439 118.718 26.625 118.523 26.7692 118.379C26.9135 118.234 27.1092 118.154 27.3132 118.154C27.5172 118.154 27.7128 118.234 27.8571 118.379C28.0014 118.523 28.0824 118.718 28.0824 118.922V234.927C28.0824 235.027 28.0626 235.127 28.0239 235.221C27.9853 235.314 27.9286 235.399 27.8572 235.47C27.7857 235.541 27.7009 235.598 27.6076 235.636C27.5142 235.675 27.4142 235.695 27.3132 235.695Z" fill="#A191FB"/>
<path d="M294.235 235.695C294.336 235.695 294.436 235.675 294.529 235.637C294.623 235.598 294.708 235.541 294.779 235.47C294.85 235.399 294.907 235.314 294.946 235.221C294.984 235.127 295.004 235.028 295.004 234.927V118.922C295.004 118.718 294.923 118.523 294.779 118.379C294.635 118.235 294.439 118.154 294.235 118.154C294.031 118.154 293.835 118.235 293.691 118.379C293.547 118.523 293.466 118.718 293.466 118.922V234.927C293.466 235.028 293.486 235.127 293.524 235.221C293.563 235.314 293.62 235.399 293.691 235.47C293.762 235.541 293.847 235.598 293.941 235.637C294.034 235.675 294.134 235.695 294.235 235.695Z" fill="#A191FB"/>
<path d="M243.465 143.505H243.462C243.258 143.505 243.063 143.423 242.919 143.278C242.775 143.134 242.695 142.938 242.695 142.734L243.08 25.1932C243.081 24.99 243.162 24.7952 243.306 24.6517C243.45 24.5083 243.646 24.4277 243.849 24.4276H243.852C244.056 24.4283 244.251 24.5099 244.395 24.6545C244.539 24.7991 244.619 24.9947 244.618 25.1985L244.234 142.74C244.233 142.943 244.152 143.138 244.008 143.281C243.863 143.425 243.668 143.505 243.465 143.505Z" fill="#3F3D56"/>
<path d="M145.001 311.751H144.998C144.794 311.75 144.599 311.669 144.455 311.524C144.311 311.38 144.231 311.184 144.231 310.981L144.616 196.512C144.617 196.309 144.698 196.114 144.842 195.97C144.986 195.827 145.182 195.746 145.385 195.746H145.388C145.592 195.747 145.787 195.829 145.931 195.973C146.075 196.118 146.155 196.313 146.155 196.517L145.77 310.985C145.769 311.188 145.688 311.383 145.544 311.527C145.4 311.67 145.204 311.751 145.001 311.751Z" fill="#3F3D56"/>
<path d="M71.9274 165.017H71.9248C71.7208 165.016 71.5254 164.934 71.3817 164.79C71.2379 164.645 71.1575 164.45 71.1582 164.246L71.5428 48.2411C71.5436 48.0378 71.625 47.8431 71.7691 47.6996C71.9133 47.5561 72.1085 47.4755 72.3121 47.4755H72.3147C72.5187 47.4762 72.7141 47.5578 72.8578 47.7023C73.0016 47.8469 73.082 48.0426 73.0813 48.2463L72.6967 164.251C72.6959 164.454 72.6146 164.649 72.4704 164.793C72.3262 164.936 72.131 165.017 71.9274 165.017Z" fill="#3F3D56"/>
<path d="M40.1706 195.899C41.652 187.912 50.7451 184.229 58.113 184.854C68.6424 185.748 77.4301 192.672 87.2299 195.936C91.9655 197.513 97.0606 198.379 102.023 197.471C105.935 196.666 109.563 194.837 112.534 192.171C118.232 187.308 122.084 180.674 127.786 175.816C130.836 173.074 134.693 171.392 138.779 171.022C143.811 170.688 148.738 172.391 153.148 174.674C161.909 179.208 169.081 186.423 178.413 189.923C182.697 191.572 187.345 192.052 191.877 191.312C196.4 190.412 200.701 188.629 204.533 186.066C212.567 180.997 219.189 173.962 227.637 169.516C231.791 167.33 236.406 165.658 241.151 165.625C245.737 165.631 250.146 167.394 253.469 170.55C259.867 176.359 264.912 185.528 274.683 185.689C276.721 185.727 278.727 185.177 280.46 184.105C281.721 183.327 280.563 181.332 279.295 182.115C275.312 184.575 270.515 183.023 266.885 180.637C263.018 178.096 260.274 174.213 257.118 170.904C253.984 167.617 250.326 164.849 245.817 163.823C241.312 162.934 236.647 163.324 232.352 164.947C223.121 168.159 216.134 174.771 208.473 180.523C200.923 186.192 192.108 191.096 182.367 188.736C172.667 186.385 165.309 179.049 156.92 174.125C148.811 169.365 138.87 166.326 130.138 171.334C123.54 175.119 119.368 181.802 114.3 187.246C111.799 189.933 109.011 192.43 105.633 193.956C100.939 196.076 95.6349 195.829 90.746 194.572C80.5477 191.951 71.946 185.092 61.5612 183.041C53.8531 181.518 44.7296 183.437 40.0249 190.242C38.9845 191.759 38.276 193.478 37.9454 195.287C37.6765 196.737 39.9001 197.358 40.1706 195.899Z" fill="#3F3D56"/>
<path d="M72.3115 200.932C77.8344 200.932 82.3115 196.46 82.3115 190.945C82.3115 185.429 77.8344 180.958 72.3115 180.958C66.7887 180.958 62.3115 185.429 62.3115 190.945C62.3115 196.46 66.7887 200.932 72.3115 200.932Z" fill="#7D69F9"/>
<path d="M144.234 179.805C149.757 179.805 154.234 175.334 154.234 169.818C154.234 164.302 149.757 159.831 144.234 159.831C138.712 159.831 134.234 164.302 134.234 169.818C134.234 175.334 138.712 179.805 144.234 179.805Z" fill="#7D69F9"/>
<path d="M242.692 172.891C248.215 172.891 252.692 168.42 252.692 162.904C252.692 157.388 248.215 152.917 242.692 152.917C237.17 152.917 232.692 157.388 232.692 162.904C232.692 168.42 237.17 172.891 242.692 172.891Z" fill="#7D69F9"/>
<path d="M156.914 341.008H134.979C133.773 341.007 132.607 340.571 131.696 339.781C130.786 338.991 130.191 337.899 130.022 336.706C128.667 326.753 128.667 316.662 130.022 306.709C130.189 305.532 130.769 304.453 131.659 303.665C132.549 302.877 133.691 302.431 134.88 302.407C142.023 298.576 149.467 298.575 157.008 302.407C157.727 302.419 158.436 302.587 159.083 302.901C159.731 303.214 160.302 303.665 160.758 304.221C161.235 304.803 161.576 305.483 161.757 306.213C161.938 306.942 161.954 307.703 161.804 308.439C160.042 317.197 160.042 326.217 161.804 334.974C161.954 335.711 161.938 336.472 161.757 337.201C161.576 337.931 161.235 338.611 160.758 339.192C160.292 339.761 159.706 340.219 159.041 340.533C158.376 340.847 157.649 341.009 156.914 341.008Z" fill="#7D69F9"/>
<path d="M257.68 41.6049H235.746C234.539 41.604 233.374 41.1684 232.463 40.3781C231.552 39.5879 230.958 38.496 230.788 37.303C229.434 27.3495 229.434 17.2587 230.788 7.30514C230.956 6.1265 231.538 5.04606 232.431 4.25777C233.325 3.46948 234.47 3.02497 235.662 3.00403C242.563 -0.0854538 249.995 -0.0850762 257.756 3.00365C258.478 3.01323 259.19 3.18069 259.841 3.49427C260.492 3.80786 261.067 4.25996 261.524 4.81885C262.002 5.40027 262.343 6.08051 262.524 6.81016C262.705 7.5398 262.72 8.30054 262.57 9.03707C260.808 17.7942 260.808 26.814 262.57 35.5711C262.72 36.3076 262.705 37.0684 262.524 37.798C262.343 38.5277 262.002 39.2079 261.524 39.7893C261.059 40.3581 260.472 40.8162 259.807 41.1302C259.142 41.4443 258.416 41.6064 257.68 41.6049Z" fill="#7D69F9"/>
<path d="M82.86 61.5553H60.9256C60.1901 61.5568 59.4634 61.3947 58.7984 61.0806C58.1335 60.7666 57.5469 60.3085 57.0814 59.7397C56.6043 59.1583 56.263 58.4781 56.0821 57.7484C55.9012 57.0188 55.8854 56.258 56.0357 55.5215C57.7976 46.7643 57.7976 37.7446 56.0357 28.9875C55.8854 28.2509 55.9012 27.4901 56.0821 26.7604C56.263 26.0307 56.6043 25.3503 57.0814 24.7689C57.5372 24.212 58.1091 23.7612 58.7573 23.4479C59.4055 23.1345 60.1143 22.9661 60.8344 22.9544C67.5028 19.6928 74.9382 19.6928 82.937 22.9544C84.13 22.9735 85.2771 23.4172 86.1717 24.2057C87.0664 24.9941 87.6498 26.0757 87.8172 27.2555C89.1716 37.209 89.1716 47.2996 87.8172 57.253C87.648 58.4461 87.0535 59.5381 86.1428 60.3284C85.2321 61.1188 84.0665 61.5544 82.86 61.5553Z" fill="#CCCCCC"/>
<path d="M255.383 14.4407H236.921C236.615 14.4407 236.322 14.3193 236.106 14.1032C235.889 13.8871 235.768 13.594 235.768 13.2884C235.768 12.9827 235.889 12.6896 236.106 12.4735C236.322 12.2574 236.615 12.136 236.921 12.136H255.383C255.689 12.136 255.982 12.2574 256.199 12.4735C256.415 12.6896 256.537 12.9827 256.537 13.2884C256.537 13.594 256.415 13.8871 256.199 14.1032C255.982 14.3193 255.689 14.4407 255.383 14.4407Z" fill="white"/>
<path d="M255.383 23.6593H236.921C236.615 23.6593 236.322 23.5379 236.106 23.3218C235.889 23.1057 235.768 22.8126 235.768 22.507C235.768 22.2014 235.889 21.9082 236.106 21.6921C236.322 21.476 236.615 21.3546 236.921 21.3546H255.383C255.689 21.3546 255.982 21.476 256.199 21.6921C256.415 21.9082 256.537 22.2014 256.537 22.507C256.537 22.8126 256.415 23.1057 256.199 23.3218C255.982 23.5379 255.689 23.6593 255.383 23.6593Z" fill="white"/>
<path d="M255.383 32.8785H236.921C236.615 32.8785 236.322 32.757 236.106 32.5409C235.889 32.3248 235.768 32.0317 235.768 31.7261C235.768 31.4205 235.889 31.1274 236.106 30.9112C236.322 30.6951 236.615 30.5737 236.921 30.5737H255.383C255.689 30.5737 255.982 30.6951 256.199 30.9112C256.415 31.1274 256.537 31.4205 256.537 31.7261C256.537 32.0317 256.415 32.3248 256.199 32.5409C255.982 32.757 255.689 32.8785 255.383 32.8785Z" fill="white"/>
<path d="M83.1954 32.8783H64.7339C64.4279 32.8783 64.1344 32.7569 63.918 32.5408C63.7017 32.3247 63.5801 32.0316 63.5801 31.726C63.5801 31.4203 63.7017 31.1272 63.918 30.9111C64.1344 30.695 64.4279 30.5736 64.7339 30.5736H83.1954C83.5014 30.5736 83.7949 30.695 84.0113 30.9111C84.2277 31.1272 84.3493 31.4203 84.3493 31.726C84.3493 32.0316 84.2277 32.3247 84.0113 32.5408C83.7949 32.7569 83.5014 32.8783 83.1954 32.8783Z" fill="white"/>
<path d="M83.1954 42.0971H64.7339C64.4279 42.0971 64.1344 41.9757 63.918 41.7596C63.7017 41.5435 63.5801 41.2503 63.5801 40.9447C63.5801 40.6391 63.7017 40.346 63.918 40.1299C64.1344 39.9138 64.4279 39.7924 64.7339 39.7924H83.1954C83.5014 39.7924 83.7949 39.9138 84.0113 40.1299C84.2277 40.346 84.3493 40.6391 84.3493 40.9447C84.3493 41.2503 84.2277 41.5435 84.0113 41.7596C83.7949 41.9757 83.5014 42.0971 83.1954 42.0971Z" fill="white"/>
<path d="M83.1954 51.316H64.7339C64.4279 51.316 64.1344 51.1945 63.918 50.9784C63.7017 50.7623 63.5801 50.4692 63.5801 50.1636C63.5801 49.858 63.7017 49.5649 63.918 49.3487C64.1344 49.1326 64.4279 49.0112 64.7339 49.0112H83.1954C83.5014 49.0112 83.7949 49.1326 84.0113 49.3487C84.2277 49.5649 84.3493 49.858 84.3493 50.1636C84.3493 50.4692 84.2277 50.7623 84.0113 50.9784C83.7949 51.1945 83.5014 51.316 83.1954 51.316Z" fill="white"/>
<path d="M155.498 311.751H137.037C136.731 311.751 136.437 311.63 136.221 311.414C136.004 311.197 135.883 310.904 135.883 310.599C135.883 310.293 136.004 310 136.221 309.784C136.437 309.568 136.731 309.446 137.037 309.446H155.498C155.804 309.446 156.098 309.568 156.314 309.784C156.53 310 156.652 310.293 156.652 310.599C156.652 310.904 156.53 311.197 156.314 311.414C156.098 311.63 155.804 311.751 155.498 311.751Z" fill="white"/>
<path d="M155.498 320.97H137.037C136.731 320.97 136.437 320.849 136.221 320.633C136.004 320.416 135.883 320.123 135.883 319.818C135.883 319.512 136.004 319.219 136.221 319.003C136.437 318.787 136.731 318.665 137.037 318.665H155.498C155.804 318.665 156.098 318.787 156.314 319.003C156.53 319.219 156.652 319.512 156.652 319.818C156.652 320.123 156.53 320.416 156.314 320.633C156.098 320.849 155.804 320.97 155.498 320.97Z" fill="white"/>
<path d="M155.498 330.189H137.037C136.731 330.189 136.437 330.067 136.221 329.851C136.004 329.635 135.883 329.342 135.883 329.036C135.883 328.731 136.004 328.438 136.221 328.222C136.437 328.005 136.731 327.884 137.037 327.884H155.498C155.804 327.884 156.098 328.005 156.314 328.222C156.53 328.438 156.652 328.731 156.652 329.036C156.652 329.342 156.53 329.635 156.314 329.851C156.098 330.067 155.804 330.189 155.498 330.189Z" fill="white"/>
</svg>
