<svg width="13" height="13" viewBox="0 0 13 13" fill="none" xmlns="http://www.w3.org/2000/svg">
<path d="M3.92579 1.03851C3.35724 0.683341 2.61154 0.742179 2.13159 1.22213L1.31829 2.03543C0.0830716 3.27066 1.24373 6.434 3.91069 9.10096C6.57765 11.7679 9.74101 12.9286 10.9762 11.6934L11.7895 10.8801C12.351 10.3186 12.3362 9.39343 11.7564 8.81366L10.4966 7.55393C9.91687 6.97415 8.99172 6.95931 8.43025 7.52078L8.25556 7.69547C7.95242 7.99861 7.46338 8.02827 7.12204 7.74659C6.7928 7.4749 6.46485 7.18198 6.14726 6.86439C5.82967 6.5468 5.53676 6.21886 5.26506 5.88961C4.98339 5.54827 5.01304 5.05924 5.31619 4.75609L5.49088 4.58141C5.93351 4.13878 6.01797 3.47012 5.74983 2.92283" stroke="white" stroke-width="0.86875" stroke-linecap="round"/>
<path d="M10.0671 4.44647C9.91286 4.07028 9.68303 3.71784 9.37758 3.41239C9.08938 3.12418 8.75934 2.9033 8.407 2.74974" stroke="white" stroke-width="0.86875" stroke-linecap="round"/>
<path d="M8.40719 0.597202C9.25075 0.902801 10.0422 1.39374 10.7185 2.07003C11.4118 2.76329 11.9103 3.57758 12.214 4.44494" stroke="white" stroke-width="0.86875" stroke-linecap="round"/>
</svg>
