<svg width="320" height="323" viewBox="0 0 320 323" fill="none" xmlns="http://www.w3.org/2000/svg">
<path d="M173.813 35.5536C183.568 35.5536 191.477 27.6453 191.477 17.8898C191.477 8.13441 183.568 0.226074 173.813 0.226074C164.058 0.226074 156.149 8.13441 156.149 17.8898C156.149 27.6453 164.058 35.5536 173.813 35.5536Z" fill="#FF6884"/>
<path d="M143.872 126.948H116.542L115.054 37.3669C115.018 35.1926 116.219 33.0635 118.349 31.5258L134.854 7.44036C138.992 4.453 158.562 6.98006 163.062 9.68239L195.143 28.9494C197.76 30.5212 199.238 32.8323 199.198 35.29L198.096 102.659V110.205V116.641V128.218L143.872 126.948Z" fill="#E6E6E6"/>
<path d="M168.103 37.9144V33.7605C168.103 32.664 168.995 31.772 170.091 31.772H175.927C177.024 31.772 177.916 32.664 177.916 33.7605V37.9144C177.916 39.0109 177.024 39.9029 175.927 39.9029H170.091C168.995 39.9029 168.103 39.0109 168.103 37.9144Z" fill="#7D69F9"/>
<path d="M158.295 99.2603C157.25 99.2233 156.408 98.3759 156.377 97.3313L155.94 82.4765C155.922 81.8424 156.196 81.2531 156.693 80.8591C157.191 80.4654 157.827 80.334 158.44 80.4966L158.877 80.6133C159.746 80.8452 160.353 81.6351 160.353 82.5346V97.273C160.353 97.8173 160.138 98.3255 159.746 98.7036C159.372 99.065 158.884 99.2614 158.367 99.2614C158.343 99.2614 158.319 99.2611 158.295 99.2603Z" fill="#3F3D56"/>
<path d="M140.167 97.21V81.7964C140.167 80.7083 141.019 79.8351 142.107 79.8083L149.96 79.6169C151.048 79.6018 151.964 80.4561 151.996 81.5472L152.448 97.1523C152.464 97.6941 152.265 98.2067 151.887 98.5955C151.509 98.9843 151.003 99.1984 150.461 99.1984H142.155C141.059 99.1984 140.167 98.3063 140.167 97.21Z" fill="#3F3D56"/>
<path d="M184.598 106.209L170.229 106.349L170.231 106.63L184.6 106.489L184.598 106.209Z" fill="#3F3D56"/>
<path d="M169.179 100.434V81.4205C169.179 80.3239 170.071 79.4319 171.167 79.4319H180.368C181.464 79.4319 182.356 80.3239 182.356 81.4205V100.434C182.356 101.531 181.464 102.423 180.368 102.423H171.167C170.071 102.423 169.179 101.531 169.179 100.434Z" fill="#7D69F9"/>
<path d="M170.302 65.9487V51.4206C170.302 50.3242 171.194 49.4321 172.29 49.4321H175.323C176.419 49.4321 177.311 50.3242 177.311 51.4206V65.9487C177.311 67.045 176.419 67.937 175.323 67.937H172.29C171.194 67.937 170.302 67.045 170.302 65.9487Z" fill="#3F3D56"/>
<path d="M150.993 31.1751V60.8951C150.993 63.5234 148.855 65.6615 146.226 65.6615H116.507C113.878 65.6615 111.74 63.5234 111.74 60.8951V31.1751C111.74 28.5468 113.878 26.4087 116.507 26.4087H146.226C148.855 26.4087 150.993 28.5468 150.993 31.1751ZM144.383 65.1008C147.724 65.1008 150.432 62.3924 150.432 59.0514V45.9115C150.432 35.4501 141.951 26.9694 131.49 26.9694H116.507C114.184 26.9694 112.301 28.8524 112.301 31.1751V56.7485C112.301 61.3613 116.04 65.1008 120.653 65.1008L144.383 65.1008Z" fill="#3F3D56"/>
<path d="M135.33 38.5475H125.736C125.494 38.5475 125.297 38.3507 125.297 38.1088C125.297 37.8669 125.494 37.6702 125.736 37.6702H135.33C135.572 37.6702 135.769 37.8669 135.769 38.1088C135.769 38.3507 135.572 38.5475 135.33 38.5475Z" fill="#7D69F9"/>
<path d="M135.33 47.9013H125.736C125.494 47.9013 125.297 47.7044 125.297 47.4625C125.297 47.2207 125.494 47.0239 125.736 47.0239H135.33C135.572 47.0239 135.769 47.2207 135.769 47.4625C135.769 47.7044 135.572 47.9013 135.33 47.9013Z" fill="#7D69F9"/>
<path d="M130.56 60.7992H120.965C120.723 60.7992 120.526 60.6024 120.526 60.3605C120.526 60.1186 120.723 59.9219 120.965 59.9219H130.56C130.802 59.9219 130.998 60.1186 130.998 60.3605C130.998 60.6024 130.802 60.7992 130.56 60.7992Z" fill="#7D69F9"/>
<path d="M140.482 43.2284H120.59C120.348 43.2284 120.151 43.0316 120.151 42.7897C120.151 42.5478 120.348 42.3511 120.59 42.3511H140.482C140.724 42.3511 140.92 42.5478 140.92 42.7897C140.92 43.0316 140.724 43.2284 140.482 43.2284Z" fill="#7D69F9"/>
<path d="M142.265 95.131C117.636 95.131 97.5986 75.0936 97.5986 50.4644C97.5986 25.8351 117.636 5.79785 142.265 5.79785C166.894 5.79785 186.931 25.8351 186.931 50.4644C186.931 75.0936 166.894 95.131 142.265 95.131ZM142.265 6.35861C115.702 62.8338 97.9697 30.9205 98.1594 50.4644C98.3954 74.7834 117.945 94.5703 142.265 94.5703C166.585 94.5703 186.37 74.7845 186.37 50.4644C186.37 26.1442 166.585 6.35861 142.265 6.35861Z" fill="#3F3D56"/>
<path d="M202.371 218.725C202.05 217.963 201.513 217.312 200.826 216.852C200.138 216.392 199.331 216.144 198.504 216.138H121.302C120.192 216.138 119.128 216.579 118.344 217.364C117.559 218.149 117.118 219.213 117.117 220.323V317.991C117.118 319.1 117.559 320.165 118.344 320.949C119.128 321.734 120.192 322.175 121.302 322.176H198.507C199.616 322.174 200.68 321.733 201.464 320.948C202.249 320.164 202.69 319.1 202.691 317.991V220.323C202.693 219.774 202.585 219.231 202.374 218.725H202.371ZM201.759 317.991C201.758 318.854 201.415 319.681 200.805 320.292C200.194 320.902 199.367 321.245 198.504 321.246H121.302C120.439 321.246 119.611 320.903 119 320.293C118.39 319.682 118.047 318.855 118.047 317.991V220.323C118.048 219.46 118.391 218.633 119.001 218.022C119.612 217.412 120.439 217.069 121.302 217.068H198.507C199.157 217.07 199.791 217.266 200.33 217.631C200.868 217.996 201.285 218.513 201.528 219.116C201.576 219.236 201.617 219.358 201.651 219.483C201.725 219.757 201.762 220.039 201.762 220.323L201.759 317.991Z" fill="#3F3D56"/>
<path d="M186.263 239.195H163.009C162.515 239.195 162.042 238.999 161.693 238.65C161.344 238.301 161.148 237.828 161.148 237.335C161.148 236.841 161.344 236.368 161.693 236.019C162.042 235.67 162.515 235.474 163.009 235.474H186.263C186.756 235.474 187.23 235.67 187.579 236.019C187.928 236.368 188.124 236.841 188.124 237.335C188.124 237.828 187.928 238.301 187.579 238.65C187.23 238.999 186.756 239.195 186.263 239.195Z" fill="#3F3D56"/>
<path d="M186.263 248.963H163.009C162.515 248.963 162.042 248.767 161.693 248.418C161.344 248.069 161.148 247.596 161.148 247.103C161.148 246.609 161.344 246.136 161.693 245.787C162.042 245.438 162.515 245.242 163.009 245.242H186.263C186.756 245.242 187.23 245.438 187.579 245.787C187.928 246.136 188.124 246.609 188.124 247.103C188.124 247.596 187.928 248.069 187.579 248.418C187.23 248.767 186.756 248.963 186.263 248.963Z" fill="#3F3D56"/>
<path d="M151.077 254.525H134.083C133.528 254.524 132.996 254.303 132.604 253.911C132.212 253.519 131.991 252.987 131.99 252.432V232.377C131.991 231.822 132.212 231.29 132.604 230.898C132.996 230.505 133.528 230.285 134.083 230.284H151.077C151.632 230.285 152.164 230.505 152.557 230.898C152.949 231.29 153.17 231.822 153.17 232.377V252.432C153.17 252.987 152.949 253.519 152.557 253.911C152.164 254.303 151.632 254.524 151.077 254.525Z" fill="#7D69F9"/>
<path d="M186.112 268.962H133.558C133.064 268.962 132.591 268.766 132.242 268.417C131.893 268.068 131.697 267.595 131.697 267.101C131.697 266.608 131.893 266.135 132.242 265.786C132.591 265.437 133.064 265.241 133.558 265.241H186.112C186.356 265.241 186.598 265.289 186.824 265.383C187.05 265.476 187.255 265.613 187.428 265.786C187.6 265.959 187.737 266.164 187.831 266.389C187.924 266.615 187.973 266.857 187.973 267.101C187.973 267.346 187.924 267.588 187.831 267.813C187.737 268.039 187.6 268.244 187.428 268.417C187.255 268.59 187.05 268.727 186.824 268.82C186.598 268.914 186.356 268.962 186.112 268.962Z" fill="#CCCCCC"/>
<path d="M186.112 278.728H133.558C133.064 278.728 132.591 278.532 132.242 278.183C131.893 277.834 131.697 277.361 131.697 276.868C131.697 276.374 131.893 275.901 132.242 275.552C132.591 275.203 133.064 275.007 133.558 275.007H186.112C186.606 275.007 187.079 275.203 187.428 275.552C187.777 275.901 187.973 276.374 187.973 276.868C187.973 277.361 187.777 277.834 187.428 278.183C187.079 278.532 186.606 278.728 186.112 278.728Z" fill="#CCCCCC"/>
<path d="M186.112 288.495H133.558C133.064 288.495 132.591 288.299 132.242 287.95C131.893 287.601 131.697 287.128 131.697 286.635C131.697 286.141 131.893 285.668 132.242 285.319C132.591 284.97 133.064 284.774 133.558 284.774H186.112C186.606 284.774 187.079 284.97 187.428 285.319C187.777 285.668 187.973 286.141 187.973 286.635C187.973 287.128 187.777 287.601 187.428 287.95C187.079 288.299 186.606 288.495 186.112 288.495Z" fill="#CCCCCC"/>
<path d="M186.112 298.263H133.558C133.064 298.263 132.591 298.067 132.242 297.718C131.893 297.369 131.697 296.896 131.697 296.402C131.697 295.909 131.893 295.436 132.242 295.087C132.591 294.738 133.064 294.542 133.558 294.542H186.112C186.606 294.542 187.079 294.738 187.428 295.087C187.777 295.436 187.973 295.909 187.973 296.402C187.973 296.896 187.777 297.369 187.428 297.718C187.079 298.067 186.606 298.263 186.112 298.263Z" fill="#CCCCCC"/>
<path d="M186.112 308.029H133.558C133.064 308.029 132.591 307.833 132.242 307.484C131.893 307.135 131.697 306.662 131.697 306.169C131.697 305.675 131.893 305.202 132.242 304.853C132.591 304.504 133.064 304.308 133.558 304.308H186.112C186.606 304.308 187.079 304.504 187.428 304.853C187.777 305.202 187.973 305.675 187.973 306.169C187.973 306.662 187.777 307.135 187.428 307.484C187.079 307.833 186.606 308.029 186.112 308.029Z" fill="#CCCCCC"/>
<path d="M161.213 192.605C171.129 192.605 179.167 184.567 179.167 174.651C179.167 164.735 171.129 156.697 161.213 156.697C151.297 156.697 143.259 164.735 143.259 174.651C143.259 184.567 151.297 192.605 161.213 192.605Z" fill="#7D69F9"/>
<path d="M159.435 181.499C159.032 181.5 158.638 181.369 158.315 181.127L158.295 181.111L154.076 177.884C153.88 177.734 153.716 177.547 153.592 177.334C153.469 177.121 153.389 176.885 153.356 176.641C153.324 176.397 153.34 176.148 153.403 175.91C153.467 175.672 153.577 175.449 153.727 175.254C153.877 175.058 154.064 174.894 154.277 174.771C154.491 174.647 154.726 174.567 154.97 174.535C155.215 174.503 155.463 174.519 155.701 174.583C155.939 174.647 156.162 174.757 156.357 174.907L159.09 177.003L165.549 168.578C165.851 168.183 166.298 167.925 166.791 167.86C167.284 167.795 167.782 167.928 168.177 168.231L168.177 168.231L168.137 168.287L168.178 168.231C168.572 168.534 168.83 168.981 168.895 169.473C168.96 169.966 168.827 170.465 168.525 170.859L160.929 180.765C160.753 180.994 160.527 181.178 160.268 181.305C160.01 181.432 159.725 181.497 159.437 181.497L159.435 181.499Z" fill="white"/>
<path d="M43.0072 166.449C49.7265 166.449 55.1736 161.002 55.1736 154.282C55.1736 147.563 49.7265 142.116 43.0072 142.116C36.2879 142.116 30.8408 147.563 30.8408 154.282C30.8408 161.002 36.2879 166.449 43.0072 166.449Z" fill="#CCCCCC"/>
<path d="M41.8142 158.924C41.5405 158.924 41.2741 158.836 41.0551 158.672L41.0418 158.662L38.1824 156.473C37.9227 156.265 37.7547 155.964 37.7144 155.634C37.6742 155.304 37.7648 154.971 37.967 154.707C38.1691 154.444 38.4667 154.269 38.7958 154.222C39.1249 154.175 39.4593 154.259 39.7273 154.456L41.5794 155.876L45.9558 150.168C46.1607 149.901 46.4634 149.726 46.7973 149.682C47.1312 149.638 47.469 149.728 47.7363 149.933L47.7093 149.97L47.7371 149.934C48.0041 150.139 48.1787 150.442 48.2228 150.776C48.2668 151.11 48.1766 151.447 47.972 151.715L42.8243 158.429C42.7052 158.583 42.5522 158.709 42.3769 158.795C42.2016 158.881 42.0089 158.925 41.8137 158.925L41.8142 158.924Z" fill="white"/>
<path d="M77.2089 182.809C76.9562 182.21 76.5333 181.697 75.9925 181.335C75.4517 180.973 74.8167 180.778 74.166 180.773H13.4169C12.5437 180.773 11.7064 181.12 11.089 181.738C10.4715 182.355 10.1245 183.193 10.124 184.066V260.916C10.1245 261.79 10.4715 262.627 11.089 263.244C11.7064 263.862 12.5437 264.209 13.4169 264.209H74.166C75.0389 264.208 75.8758 263.861 76.4931 263.244C77.1103 262.626 77.4576 261.789 77.4588 260.916V184.066C77.4602 183.634 77.3752 183.207 77.2089 182.809ZM76.7276 260.917C76.7262 261.595 76.4561 262.246 75.9763 262.726C75.4965 263.205 74.8461 263.476 74.1676 263.477H13.4169C12.738 263.477 12.0868 263.207 11.6067 262.727C11.1267 262.247 10.8569 261.596 10.8569 260.917V184.066C10.8583 183.387 11.1284 182.737 11.6082 182.257C12.088 181.777 12.7384 181.507 13.4169 181.506H74.166C74.6779 181.508 75.1775 181.663 75.6011 181.95C76.0247 182.238 76.3529 182.645 76.5439 183.12C76.5811 183.214 76.6133 183.311 76.6402 183.409C76.6985 183.624 76.728 183.846 76.7281 184.07L76.7276 260.917Z" fill="#CCCCCC"/>
<path d="M64.5178 198.918H46.2198C45.8315 198.918 45.4592 198.763 45.1846 198.489C44.9101 198.214 44.7559 197.842 44.7559 197.454C44.7559 197.065 44.9101 196.693 45.1846 196.419C45.4592 196.144 45.8315 195.99 46.2198 195.99H64.5172C64.9055 195.99 65.2778 196.144 65.5523 196.419C65.8269 196.693 65.9811 197.065 65.9811 197.454C65.9811 197.842 65.8269 198.214 65.5523 198.489C65.2778 198.763 64.906 198.918 64.5178 198.918Z" fill="#CCCCCC"/>
<path d="M64.5178 206.604H46.2198C45.8315 206.604 45.4592 206.45 45.1846 206.175C44.9101 205.901 44.7559 205.528 44.7559 205.14C44.7559 204.752 44.9101 204.379 45.1846 204.105C45.4592 203.83 45.8315 203.676 46.2198 203.676H64.5172C64.9055 203.676 65.2778 203.83 65.5523 204.105C65.8269 204.379 65.9811 204.752 65.9811 205.14C65.9811 205.528 65.8269 205.901 65.5523 206.175C65.2778 206.45 64.906 206.604 64.5178 206.604Z" fill="#CCCCCC"/>
<path d="M36.8437 210.979H23.4719C23.0353 210.979 22.6167 210.805 22.308 210.497C21.9993 210.188 21.8256 209.769 21.8252 209.333V193.553C21.8256 193.116 21.9993 192.698 22.308 192.389C22.6167 192.08 23.0353 191.906 23.4719 191.906H36.8437C37.2802 191.907 37.6987 192.08 38.0074 192.389C38.3161 192.698 38.4898 193.116 38.4904 193.553V209.333C38.49 209.769 38.3163 210.188 38.0076 210.497C37.6989 210.805 37.2803 210.979 36.8437 210.979Z" fill="#CCCCCC"/>
<path d="M64.4004 222.34H23.0479C22.6596 222.34 22.2873 222.186 22.0128 221.911C21.7382 221.637 21.584 221.264 21.584 220.876C21.584 220.488 21.7382 220.115 22.0128 219.841C22.2873 219.566 22.6596 219.412 23.0479 219.412H64.4004C64.7886 219.412 65.161 219.566 65.4355 219.841C65.71 220.115 65.8643 220.488 65.8643 220.876C65.8643 221.264 65.71 221.637 65.4355 221.911C65.161 222.186 64.7886 222.34 64.4004 222.34Z" fill="#CCCCCC"/>
<path d="M64.4004 230.026H23.0479C22.6596 230.026 22.2873 229.871 22.0128 229.597C21.7382 229.322 21.584 228.95 21.584 228.562C21.584 228.174 21.7382 227.801 22.0128 227.527C22.2873 227.252 22.6596 227.098 23.0479 227.098H64.4004C64.7886 227.098 65.161 227.252 65.4355 227.527C65.71 227.801 65.8643 228.174 65.8643 228.562C65.8643 228.95 65.71 229.322 65.4355 229.597C65.161 229.871 64.7886 230.026 64.4004 230.026Z" fill="#CCCCCC"/>
<path d="M64.4004 237.71H23.0479C22.6596 237.71 22.2873 237.555 22.0128 237.281C21.7382 237.006 21.584 236.634 21.584 236.246C21.584 235.857 21.7382 235.485 22.0128 235.211C22.2873 234.936 22.6596 234.782 23.0479 234.782H64.4004C64.7886 234.782 65.161 234.936 65.4355 235.211C65.71 235.485 65.8643 235.857 65.8643 236.246C65.8643 236.634 65.71 237.006 65.4355 237.281C65.161 237.555 64.7886 237.71 64.4004 237.71Z" fill="#CCCCCC"/>
<path d="M64.4004 245.397H23.0479C22.6596 245.397 22.2873 245.243 22.0128 244.968C21.7382 244.694 21.584 244.321 21.584 243.933C21.584 243.545 21.7382 243.173 22.0128 242.898C22.2873 242.623 22.6596 242.469 23.0479 242.469H64.4004C64.7886 242.469 65.161 242.623 65.4355 242.898C65.71 243.173 65.8643 243.545 65.8643 243.933C65.8643 244.321 65.71 244.694 65.4355 244.968C65.161 245.243 64.7886 245.397 64.4004 245.397Z" fill="#CCCCCC"/>
<path d="M64.4004 253.078H23.0479C22.6596 253.078 22.2873 252.924 22.0128 252.65C21.7382 252.375 21.584 252.003 21.584 251.615C21.584 251.226 21.7382 250.854 22.0128 250.579C22.2873 250.305 22.6596 250.151 23.0479 250.151H64.4004C64.7886 250.151 65.161 250.305 65.4355 250.579C65.71 250.854 65.8643 251.226 65.8643 251.615C65.8643 252.003 65.71 252.375 65.4355 252.65C65.161 252.924 64.7886 253.078 64.4004 253.078Z" fill="#CCCCCC"/>
<path d="M0.439492 264.531H85.8268C85.943 264.531 86.0544 264.485 86.1365 264.403C86.2187 264.321 86.2648 264.209 86.2648 264.093C86.2648 263.977 86.2187 263.865 86.1365 263.783C86.0544 263.701 85.943 263.655 85.8268 263.655H0.439492C0.381977 263.655 0.32496 263.666 0.271697 263.687C0.218435 263.709 0.169972 263.741 0.129072 263.782C0.0881711 263.822 0.0556403 263.87 0.0333283 263.923C0.0110163 263.976 -0.000642822 264.033 -0.000969498 264.091C-0.00129617 264.148 0.00970928 264.205 0.0314176 264.258C0.053126 264.312 0.0851176 264.36 0.125556 264.401C0.165995 264.442 0.214091 264.474 0.267103 264.497C0.320116 264.519 0.377001 264.531 0.434516 264.531H0.439492Z" fill="#CCCCCC"/>
<path d="M276.746 166.449C283.466 166.449 288.913 161.002 288.913 154.282C288.913 147.563 283.466 142.116 276.746 142.116C270.027 142.116 264.58 147.563 264.58 154.282C264.58 161.002 270.027 166.449 276.746 166.449Z" fill="#CCCCCC"/>
<path d="M275.544 158.923C275.27 158.923 275.004 158.835 274.785 158.671L274.771 158.661L271.912 156.471C271.652 156.264 271.484 155.963 271.444 155.633C271.404 155.303 271.494 154.97 271.696 154.706C271.899 154.442 272.196 154.268 272.525 154.221C272.854 154.174 273.189 154.258 273.457 154.455L275.309 155.875L279.685 150.167C279.89 149.9 280.193 149.725 280.527 149.681C280.861 149.637 281.198 149.727 281.466 149.932L281.439 149.969L281.467 149.933C281.734 150.138 281.908 150.441 281.952 150.775C281.996 151.109 281.906 151.446 281.701 151.714L276.554 158.427C276.435 158.582 276.282 158.707 276.106 158.793C275.931 158.879 275.738 158.924 275.543 158.923L275.544 158.923Z" fill="white"/>
<path d="M310.939 182.808C310.687 182.209 310.264 181.696 309.723 181.334C309.182 180.972 308.547 180.777 307.896 180.772H247.147C246.274 180.772 245.437 181.119 244.819 181.737C244.202 182.354 243.855 183.192 243.854 184.065V260.915C243.855 261.789 244.202 262.626 244.819 263.243C245.437 263.861 246.274 264.208 247.147 264.208H307.896C308.769 264.207 309.606 263.86 310.224 263.243C310.841 262.625 311.188 261.788 311.189 260.915V184.065C311.191 183.634 311.106 183.206 310.939 182.808ZM310.458 260.916C310.457 261.595 310.187 262.245 309.707 262.725C309.227 263.204 308.577 263.475 307.898 263.476H247.147C246.811 263.476 246.478 263.41 246.168 263.281C245.857 263.152 245.575 262.964 245.337 262.726C245.099 262.488 244.911 262.206 244.782 261.896C244.654 261.585 244.587 261.252 244.587 260.916V184.065C244.589 183.386 244.859 182.736 245.339 182.256C245.818 181.776 246.469 181.506 247.147 181.505H307.896C308.408 181.507 308.908 181.662 309.332 181.949C309.755 182.237 310.083 182.644 310.274 183.119C310.312 183.213 310.344 183.31 310.371 183.408C310.429 183.623 310.458 183.845 310.459 184.069L310.458 260.916Z" fill="#CCCCCC"/>
<path d="M298.256 198.917H279.958C279.57 198.917 279.197 198.763 278.923 198.489C278.648 198.214 278.494 197.842 278.494 197.453C278.494 197.065 278.648 196.693 278.923 196.418C279.197 196.144 279.57 195.99 279.958 195.99H298.255C298.644 195.99 299.016 196.144 299.291 196.418C299.565 196.693 299.719 197.065 299.719 197.453C299.719 197.842 299.565 198.214 299.291 198.489C299.016 198.763 298.644 198.917 298.255 198.917H298.256Z" fill="#CCCCCC"/>
<path d="M298.256 206.604H279.958C279.57 206.604 279.197 206.449 278.923 206.175C278.648 205.9 278.494 205.528 278.494 205.14C278.494 204.751 278.648 204.379 278.923 204.105C279.197 203.83 279.57 203.676 279.958 203.676H298.255C298.644 203.676 299.016 203.83 299.291 204.105C299.565 204.379 299.719 204.751 299.719 205.14C299.719 205.528 299.565 205.9 299.291 206.175C299.016 206.449 298.644 206.604 298.255 206.604H298.256Z" fill="#CCCCCC"/>
<path d="M270.577 210.979H257.205C256.769 210.979 256.35 210.805 256.041 210.497C255.733 210.188 255.559 209.769 255.559 209.333V193.553C255.559 193.116 255.733 192.698 256.041 192.389C256.35 192.08 256.769 191.906 257.205 191.906H270.577C271.014 191.907 271.432 192.08 271.741 192.389C272.05 192.698 272.223 193.116 272.224 193.553V209.333C272.223 209.769 272.05 210.188 271.741 210.497C271.432 210.805 271.014 210.979 270.577 210.979Z" fill="#CCCCCC"/>
<path d="M298.131 222.34H256.778C256.39 222.34 256.018 222.186 255.743 221.911C255.469 221.637 255.314 221.264 255.314 220.876C255.314 220.488 255.469 220.115 255.743 219.841C256.018 219.566 256.39 219.412 256.778 219.412H298.131C298.519 219.412 298.891 219.566 299.166 219.841C299.441 220.115 299.595 220.488 299.595 220.876C299.595 221.264 299.441 221.637 299.166 221.911C298.891 222.186 298.519 222.34 298.131 222.34Z" fill="#CCCCCC"/>
<path d="M298.131 230.025H256.778C256.39 230.025 256.018 229.87 255.743 229.596C255.469 229.321 255.314 228.949 255.314 228.561C255.314 228.172 255.469 227.8 255.743 227.525C256.018 227.251 256.39 227.097 256.778 227.097H298.131C298.519 227.097 298.891 227.251 299.166 227.525C299.441 227.8 299.595 228.172 299.595 228.561C299.595 228.949 299.441 229.321 299.166 229.596C298.891 229.87 298.519 230.025 298.131 230.025Z" fill="#CCCCCC"/>
<path d="M298.131 237.709H256.778C256.39 237.709 256.018 237.555 255.743 237.281C255.469 237.006 255.314 236.634 255.314 236.245C255.314 235.857 255.469 235.485 255.743 235.21C256.018 234.936 256.39 234.781 256.778 234.781H298.131C298.519 234.781 298.891 234.936 299.166 235.21C299.441 235.485 299.595 235.857 299.595 236.245C299.595 236.634 299.441 237.006 299.166 237.281C298.891 237.555 298.519 237.709 298.131 237.709Z" fill="#CCCCCC"/>
<path d="M298.131 245.397H256.778C256.39 245.397 256.018 245.243 255.743 244.968C255.469 244.694 255.314 244.321 255.314 243.933C255.314 243.545 255.469 243.172 255.743 242.898C256.018 242.623 256.39 242.469 256.778 242.469H298.131C298.519 242.469 298.891 242.623 299.166 242.898C299.441 243.172 299.595 243.545 299.595 243.933C299.595 244.321 299.441 244.694 299.166 244.968C298.891 245.243 298.519 245.397 298.131 245.397Z" fill="#CCCCCC"/>
<path d="M298.131 253.078H256.778C256.39 253.078 256.018 252.924 255.743 252.649C255.469 252.375 255.314 252.003 255.314 251.614C255.314 251.226 255.469 250.854 255.743 250.579C256.018 250.305 256.39 250.15 256.778 250.15H298.131C298.519 250.15 298.891 250.305 299.166 250.579C299.441 250.854 299.595 251.226 299.595 251.614C299.595 252.003 299.441 252.375 299.166 252.649C298.891 252.924 298.519 253.078 298.131 253.078Z" fill="#CCCCCC"/>
<path d="M234.175 264.531H319.562C319.678 264.531 319.79 264.485 319.872 264.403C319.954 264.321 320 264.209 320 264.093C320 263.977 319.954 263.866 319.872 263.784C319.79 263.701 319.678 263.655 319.562 263.655H234.175C234.117 263.655 234.06 263.666 234.007 263.688C233.954 263.709 233.905 263.741 233.864 263.782C233.824 263.822 233.791 263.87 233.769 263.923C233.746 263.976 233.735 264.033 233.734 264.091C233.734 264.148 233.745 264.205 233.767 264.259C233.788 264.312 233.82 264.36 233.861 264.401C233.901 264.442 233.949 264.475 234.002 264.497C234.055 264.519 234.112 264.531 234.17 264.531H234.175Z" fill="#CCCCCC"/>
<path d="M105.189 322.509H213.709C213.856 322.509 213.998 322.45 214.102 322.346C214.206 322.241 214.265 322.1 214.265 321.952C214.265 321.804 214.206 321.663 214.102 321.558C213.998 321.454 213.856 321.396 213.709 321.396H105.189C105.042 321.396 104.9 321.454 104.796 321.558C104.691 321.663 104.633 321.804 104.633 321.952C104.633 322.1 104.691 322.241 104.796 322.346C104.9 322.45 105.042 322.509 105.189 322.509Z" fill="#3F3D56"/>
</svg>
