<svg width="129" height="30" viewBox="0 0 129 30" fill="none" xmlns="http://www.w3.org/2000/svg">
<path d="M16.1459 12.7559C15.9546 12.5179 15.8831 12.2086 15.951 11.9074L16.1042 11.2275H16.0554C15.2018 11.2275 14.5098 11.9192 14.5098 12.7723V14.4533L16.3053 12.9157C16.2467 12.8689 16.1927 12.8155 16.1454 12.7559H16.1459Z" fill="white"/>
<path d="M23.3362 11.2268L21.4209 14.1802H26.3745C26.4634 14.1802 26.5359 14.1082 26.5359 14.0188V11.3877C26.5359 11.2988 26.464 11.2263 26.3745 11.2263H23.3362V11.2268Z" fill="white"/>
<path d="M13.2679 18.4928C13.2679 17.3067 11.7233 16.4377 10.479 16.4377H0.161453C0.0724999 16.4377 0 16.5097 0 16.5991V19.2282C0 19.3171 0.0719857 19.3896 0.161453 19.3896H10.479C11.7032 19.3896 13.22 20.2329 13.2668 21.3907V21.3917C13.2668 21.3917 13.2679 21.3938 13.2679 21.3943C13.2679 21.3932 13.2679 21.3922 13.2689 21.3917V21.3907C13.3157 20.2329 14.8325 19.3896 16.0568 19.3896H26.3743C26.4632 19.3896 26.5357 19.3176 26.5357 19.2282V16.5991C26.5357 16.5102 26.4637 16.4377 26.3743 16.4377H16.0568C14.8124 16.4377 13.2679 17.3073 13.2679 18.4928Z" fill="white"/>
<path d="M14.5098 23.0131V25.3297C14.5098 25.2922 14.6373 25.193 14.665 25.1663C14.7211 25.1123 14.7792 25.0604 14.8399 25.0111C14.9612 24.9124 15.0918 24.8251 15.2286 24.7495C15.4692 24.6169 15.7299 24.5224 15.9999 24.47C16.3006 24.4119 16.6061 24.4216 16.911 24.4216H26.3734C26.4624 24.4216 26.5349 24.3497 26.5349 24.2603V21.6291C26.5349 21.5402 26.4629 21.4678 26.3734 21.4678H16.0559C15.2024 21.4678 14.5103 22.1595 14.5103 23.0125L14.5098 23.0131Z" fill="white"/>
<path d="M0.612282 14.1811H9.62531C9.93022 14.1811 10.2356 14.1714 10.5364 14.2294C10.8059 14.2813 11.0671 14.3764 11.3077 14.509C11.4445 14.5845 11.5751 14.6724 11.6964 14.7706C11.7571 14.8199 11.8152 14.8713 11.8712 14.9258C11.899 14.9525 12.0265 15.0517 12.0265 15.0892V12.7726C12.0265 11.9195 11.3344 11.2278 10.4809 11.2278H0.163404C0.0744514 11.2278 0.00195312 11.2997 0.00195312 11.3891V14.0203C0.00195312 14.1092 0.0739373 14.1817 0.163404 14.1817H0.612797L0.612282 14.1811Z" fill="white"/>
<path d="M10.479 21.468H0.161453C0.0724999 21.468 0 21.54 0 21.6294V24.2605C0 24.3494 0.0719857 24.4219 0.161453 24.4219H9.62387C9.92878 24.4219 10.2342 24.4121 10.535 24.4702C10.8044 24.5221 11.0656 24.6172 11.3063 24.7498C11.443 24.8253 11.5736 24.9132 11.695 25.0113C11.7557 25.0607 11.8138 25.1121 11.8698 25.1665C11.8976 25.1932 12.0251 25.2924 12.0251 25.3299V23.0133C12.0251 22.1602 11.333 21.4685 10.4795 21.4685L10.479 21.468Z" fill="white"/>
<path d="M16.657 12.0654L17.2062 9.62538C17.2504 9.42856 17.3728 9.25794 17.5455 9.15259L26.0115 3.98743C26.3272 3.79472 26.6444 4.23204 26.3627 4.47203L17.1213 12.3454C16.9121 12.5237 16.5964 12.3331 16.657 12.0654Z" fill="white"/>
<path d="M25.0234 7.29832L20.6421 14.0555L16.9179 14.6193L13.6487 16.8748C13.3577 17.0752 13.0399 16.663 13.3083 16.4333L24.5035 6.84404C24.8095 6.58195 25.2424 6.9607 25.0234 7.29884V7.29832Z" fill="white"/>
<path d="M0.679744 9.37399C0.692598 9.49168 0.715736 9.55077 0.764583 9.61604C0.843252 9.71419 0.980538 9.76969 1.14713 9.76969C1.39908 9.76969 1.54973 9.65869 1.54973 9.47523C1.54973 9.37399 1.49729 9.2856 1.41245 9.24655C1.34355 9.21366 1.26179 9.19105 0.921921 9.11242C0.621127 9.04715 0.516235 9.00758 0.395403 8.92279C0.189218 8.7789 0.0781561 8.55998 0.0781561 8.29481C0.0781561 7.79119 0.483842 7.47412 1.12811 7.47412C1.54356 7.47412 1.86081 7.60157 2.03769 7.8467C2.11944 7.95461 2.15852 8.05277 2.2012 8.23931L1.50757 8.31434C1.46849 8.10159 1.35075 8.01371 1.10188 8.01371C0.902382 8.01371 0.755328 8.12163 0.755328 8.2722C0.755328 8.36367 0.804174 8.43254 0.909067 8.48136C0.952601 8.50088 1.10308 8.53686 1.36052 8.58927C1.60938 8.64169 1.7662 8.69719 1.89063 8.77582C2.12613 8.92279 2.24387 9.14223 2.24387 9.44286C2.24387 9.68798 2.1652 9.89714 2.01506 10.0446C1.82533 10.2276 1.53739 10.3226 1.15484 10.3226C0.876673 10.3226 0.602104 10.2635 0.425226 10.1623C0.261718 10.0708 0.14037 9.93003 0.0719846 9.744C0.0390772 9.66537 0.023138 9.59034 0 9.43977L0.680258 9.37451L0.679744 9.37399Z" fill="white"/>
<path d="M4.32549 8.48768C4.26327 8.19013 4.08999 8.04316 3.80874 8.04316C3.40974 8.04316 3.17733 8.35715 3.17733 8.89674C3.17733 9.43633 3.41951 9.7534 3.82519 9.7534C4.00515 9.7534 4.1589 9.67838 4.25402 9.54733C4.30955 9.46871 4.33269 9.40344 4.35222 9.26623L5.03248 9.36747C4.97027 9.64549 4.89828 9.80582 4.761 9.96564C4.5579 10.1979 4.24065 10.3223 3.84473 10.3223C3.44881 10.3223 3.10843 10.1979 2.87653 9.96256C2.63436 9.71743 2.49707 9.33458 2.49707 8.89674C2.49707 8.4589 2.63436 8.07605 2.89299 7.82116C3.11871 7.60224 3.44933 7.48096 3.83188 7.48096C4.25402 7.48096 4.58412 7.62485 4.79699 7.90955C4.90188 8.04367 4.95741 8.16444 5.00009 8.35766L4.326 8.48819L4.32549 8.48768Z" fill="white"/>
<path d="M6.0636 7.53931C6.04406 7.67343 6.03738 7.78443 6.03738 8.0234V9.77578C6.03738 10.0014 6.04406 10.1227 6.0636 10.2599H5.34375C5.36329 10.1324 5.36997 9.99521 5.36997 9.77578V8.0234C5.36997 7.77827 5.36329 7.6832 5.34375 7.53931H6.0636Z" fill="white"/>
<path d="M44.425 11.0752C44.4987 11.7376 44.627 12.0688 44.9037 12.4358C45.3455 12.9878 46.1177 13.3001 47.0561 13.3001C48.4732 13.3001 49.319 12.6745 49.319 11.6451C49.319 11.0752 49.0244 10.579 48.5458 10.3582C48.1597 10.1742 47.6989 10.0459 45.7853 9.60428C44.0926 9.23627 43.5035 9.01547 42.8228 8.53812C41.6635 7.72851 41.0375 6.49623 41.0375 5.0074C41.0375 2.17483 43.3194 0.391602 46.9446 0.391602C49.2811 0.391602 51.0664 1.10868 52.0595 2.48816C52.5192 3.09484 52.7401 3.64684 52.98 4.69512L49.0791 5.1178C48.8582 3.92232 48.1954 3.42604 46.7973 3.42604C45.6748 3.42604 44.8469 4.03272 44.8469 4.87912C44.8469 5.39433 45.1225 5.78021 45.7116 6.05568C45.9571 6.16573 46.8036 6.36796 48.2512 6.66236C49.6493 6.95676 50.533 7.26904 51.2316 7.71064C52.556 8.53812 53.2188 9.7704 53.2188 11.4622C53.2188 12.8416 52.777 14.0182 51.9311 14.8457C50.8644 15.875 49.2443 16.4092 47.0919 16.4092C45.5275 16.4092 43.9821 16.078 42.988 15.5081C42.0675 14.9929 41.3868 14.2022 41.0007 13.1539C40.8166 12.7123 40.7251 12.2896 40.5957 11.4432L44.4229 11.0752H44.425Z" fill="white"/>
<path d="M64.9439 6.0914C64.5946 4.41751 63.6194 3.59004 62.0361 3.59004C59.7911 3.59004 58.4845 5.35539 58.4845 8.38983C58.4845 11.4243 59.8458 13.2086 62.1276 13.2086C63.1397 13.2086 64.0044 12.7859 64.5378 12.0499C64.8503 11.6083 64.9797 11.2403 65.0901 10.4685L68.9173 11.0384C68.5681 12.6019 68.163 13.503 67.3898 14.404C66.2494 15.7099 64.4642 16.4081 62.2371 16.4081C60.0099 16.4081 58.0963 15.7089 56.7908 14.3851C55.4295 13.0056 54.6562 10.8544 54.6562 8.38983C54.6562 5.92527 55.4295 3.77404 56.8823 2.33883C58.1521 1.10654 60.011 0.42627 62.1634 0.42627C64.5368 0.42627 66.3957 1.23587 67.5918 2.8351C68.1809 3.58898 68.4934 4.26926 68.7322 5.35434L64.9418 6.09035L64.9439 6.0914Z" fill="white"/>
<path d="M74.7103 0.757324C74.5998 1.5112 74.563 2.1368 74.563 3.47949V13.3367C74.563 14.6058 74.5998 15.286 74.7103 16.0588H70.6621C70.7726 15.3418 70.8094 14.569 70.8094 13.3367V3.47949C70.8094 2.1 70.7726 1.56693 70.6621 0.757324H74.7103Z" fill="white"/>
<path d="M41.61 26.814V19.2604H44.7178C45.3868 19.2604 45.9588 19.3683 46.4336 19.5841C46.9155 19.7999 47.286 20.1093 47.545 20.5121C47.804 20.915 47.9335 21.3934 47.9335 21.9473C47.9335 22.5012 47.804 22.9796 47.545 23.3825C47.286 23.7853 46.9155 24.0947 46.4336 24.3105C45.9588 24.5263 45.3868 24.6342 44.7178 24.6342H42.387L43.0129 23.976V26.814H41.61ZM43.0129 24.127L42.387 23.4472H44.6531C45.2717 23.4472 45.7357 23.3177 46.0451 23.0588C46.3616 22.7926 46.5199 22.4221 46.5199 21.9473C46.5199 21.4653 46.3616 21.0948 46.0451 20.8358C45.7357 20.5769 45.2717 20.4474 44.6531 20.4474H42.387L43.0129 19.7568V24.127ZM51.749 26.8895C51.2598 26.8895 50.8282 26.7996 50.4541 26.6197C50.08 26.4327 49.7886 26.1521 49.58 25.778C49.3714 25.3968 49.2671 24.9184 49.2671 24.3429V21.0517H50.6159V24.1594C50.6159 24.6774 50.731 25.0658 50.9612 25.3248C51.1986 25.5766 51.5332 25.7025 51.9648 25.7025C52.2813 25.7025 52.5547 25.6378 52.7849 25.5083C53.0223 25.3788 53.2057 25.1845 53.3352 24.9256C53.4719 24.6666 53.5403 24.3465 53.5403 23.9652V21.0517H54.8891V26.814H53.605V25.2601L53.8316 25.7349C53.6374 26.109 53.3532 26.3967 52.9791 26.5981C52.605 26.7924 52.195 26.8895 51.749 26.8895ZM59.8493 26.8895C59.3601 26.8895 58.9249 26.7816 58.5436 26.5658C58.1623 26.35 57.8602 26.0262 57.6371 25.5946C57.4213 25.1558 57.3134 24.6018 57.3134 23.9328C57.3134 23.2566 57.4249 22.7027 57.6479 22.271C57.8781 21.8394 58.1839 21.5193 58.5652 21.3106C58.9536 21.0948 59.3817 20.9869 59.8493 20.9869C60.4176 20.9869 60.9176 21.1092 61.3492 21.3538C61.788 21.5984 62.1333 21.9401 62.3851 22.3789C62.6441 22.8178 62.7736 23.3357 62.7736 23.9328C62.7736 24.5299 62.6441 25.0479 62.3851 25.4867C62.1333 25.9255 61.788 26.2708 61.3492 26.5226C60.9176 26.7672 60.4176 26.8895 59.8493 26.8895ZM56.6552 26.814V18.8072H58.004V22.3897L57.8961 23.922L57.9393 25.4543V26.814H56.6552ZM59.6982 25.7349C60.0219 25.7349 60.3097 25.6629 60.5615 25.5191C60.8204 25.3752 61.0255 25.1666 61.1765 24.8932C61.3276 24.6198 61.4032 24.2997 61.4032 23.9328C61.4032 23.5587 61.3276 23.2386 61.1765 22.9724C61.0255 22.6991 60.8204 22.4904 60.5615 22.3466C60.3097 22.2027 60.0219 22.1307 59.6982 22.1307C59.3745 22.1307 59.0831 22.2027 58.8241 22.3466C58.5652 22.4904 58.3601 22.6991 58.2091 22.9724C58.058 23.2386 57.9825 23.5587 57.9825 23.9328C57.9825 24.2997 58.058 24.6198 58.2091 24.8932C58.3601 25.1666 58.5652 25.3752 58.8241 25.5191C59.0831 25.6629 59.3745 25.7349 59.6982 25.7349ZM64.0528 26.814V18.8072H65.4017V26.814H64.0528ZM67.172 26.814V21.0517H68.5209V26.814H67.172ZM67.8519 20.1021C67.6001 20.1021 67.3915 20.0229 67.226 19.8647C67.0677 19.7064 66.9886 19.5158 66.9886 19.2927C66.9886 19.0625 67.0677 18.8719 67.226 18.7208C67.3915 18.5626 67.6001 18.4834 67.8519 18.4834C68.1036 18.4834 68.3087 18.559 68.4669 18.71C68.6324 18.8539 68.7151 19.0374 68.7151 19.2604C68.7151 19.4978 68.636 19.6992 68.4777 19.8647C68.3195 20.0229 68.1108 20.1021 67.8519 20.1021ZM72.935 26.8895C72.3307 26.8895 71.7912 26.7636 71.3164 26.5118C70.8488 26.2528 70.4819 25.9003 70.2157 25.4543C69.9496 25.0083 69.8165 24.5011 69.8165 23.9328C69.8165 23.3573 69.9496 22.8501 70.2157 22.4113C70.4819 21.9653 70.8488 21.6164 71.3164 21.3646C71.7912 21.1128 72.3307 20.9869 72.935 20.9869C73.4961 20.9869 73.9889 21.102 74.4134 21.3322C74.845 21.5552 75.1723 21.8861 75.3953 22.325L74.3594 22.9293C74.1868 22.6559 73.9745 22.4545 73.7228 22.325C73.4782 22.1955 73.212 22.1307 72.9242 22.1307C72.5933 22.1307 72.2948 22.2027 72.0286 22.3466C71.7624 22.4904 71.5538 22.6991 71.4027 22.9724C71.2517 23.2386 71.1761 23.5587 71.1761 23.9328C71.1761 24.3069 71.2517 24.6306 71.4027 24.904C71.5538 25.1702 71.7624 25.3752 72.0286 25.5191C72.2948 25.6629 72.5933 25.7349 72.9242 25.7349C73.212 25.7349 73.4782 25.6701 73.7228 25.5406C73.9745 25.4112 74.1868 25.2097 74.3594 24.9364L75.3953 25.5406C75.1723 25.9723 74.845 26.3068 74.4134 26.5442C73.9889 26.7744 73.4961 26.8895 72.935 26.8895ZM80.1115 26.814V25.6486L80.036 25.4004V23.3609C80.036 22.9652 79.9173 22.6595 79.6799 22.4437C79.4425 22.2207 79.0828 22.1092 78.6008 22.1092C78.2771 22.1092 77.957 22.1595 77.6404 22.2602C77.3311 22.3609 77.0685 22.5012 76.8527 22.6811L76.3239 21.6991C76.6333 21.4617 77.0002 21.2855 77.4246 21.1704C77.8562 21.0481 78.3023 20.9869 78.7627 20.9869C79.5972 20.9869 80.241 21.1883 80.6942 21.5912C81.1546 21.9869 81.3848 22.6019 81.3848 23.4364V26.814H80.1115ZM78.2987 26.8895C77.867 26.8895 77.4894 26.8176 77.1656 26.6737C76.8419 26.5226 76.5901 26.3176 76.4103 26.0586C76.2376 25.7924 76.1513 25.4939 76.1513 25.163C76.1513 24.8392 76.2268 24.5479 76.3779 24.2889C76.5362 24.0299 76.7915 23.8249 77.144 23.6738C77.4965 23.5228 77.9642 23.4472 78.5469 23.4472H80.2194V24.3429H78.644C78.1836 24.3429 77.8742 24.4184 77.716 24.5695C77.5577 24.7133 77.4786 24.8932 77.4786 25.109C77.4786 25.3536 77.5757 25.5478 77.7699 25.6917C77.9642 25.8356 78.2339 25.9075 78.5792 25.9075C78.9101 25.9075 79.2051 25.832 79.4641 25.6809C79.7303 25.5299 79.9209 25.3068 80.036 25.0119L80.2626 25.8212C80.1331 26.1593 79.8993 26.4219 79.5612 26.6089C79.2303 26.796 78.8094 26.8895 78.2987 26.8895ZM85.2849 26.8895C84.6518 26.8895 84.1626 26.7276 83.8173 26.4039C83.472 26.073 83.2994 25.5874 83.2994 24.9471V19.7783H84.6482V24.9148C84.6482 25.1881 84.7166 25.4004 84.8533 25.5514C84.9971 25.7025 85.195 25.778 85.4468 25.778C85.7489 25.778 86.0007 25.6989 86.2021 25.5406L86.5798 26.501C86.4215 26.6305 86.2273 26.7276 85.9971 26.7924C85.7669 26.8571 85.5295 26.8895 85.2849 26.8895ZM82.3498 22.1739V21.0948H86.1913V22.1739H82.3498ZM87.6894 26.814V21.0517H89.0383V26.814H87.6894ZM88.3692 20.1021C88.1174 20.1021 87.9088 20.0229 87.7434 19.8647C87.5851 19.7064 87.506 19.5158 87.506 19.2927C87.506 19.0625 87.5851 18.8719 87.7434 18.7208C87.9088 18.5626 88.1174 18.4834 88.3692 18.4834C88.621 18.4834 88.826 18.559 88.9843 18.71C89.1498 18.8539 89.2325 19.0374 89.2325 19.2604C89.2325 19.4978 89.1534 19.6992 88.9951 19.8647C88.8368 20.0229 88.6282 20.1021 88.3692 20.1021ZM93.3984 26.8895C92.8085 26.8895 92.2834 26.7636 91.823 26.5118C91.3626 26.2528 90.9993 25.9003 90.7331 25.4543C90.4669 25.0083 90.3338 24.5011 90.3338 23.9328C90.3338 23.3573 90.4669 22.8501 90.7331 22.4113C90.9993 21.9653 91.3626 21.6164 91.823 21.3646C92.2834 21.1128 92.8085 20.9869 93.3984 20.9869C93.9955 20.9869 94.5243 21.1128 94.9847 21.3646C95.4523 21.6164 95.8156 21.9617 96.0746 22.4005C96.3407 22.8393 96.4738 23.3501 96.4738 23.9328C96.4738 24.5011 96.3407 25.0083 96.0746 25.4543C95.8156 25.9003 95.4523 26.2528 94.9847 26.5118C94.5243 26.7636 93.9955 26.8895 93.3984 26.8895ZM93.3984 25.7349C93.7294 25.7349 94.0243 25.6629 94.2833 25.5191C94.5423 25.3752 94.7437 25.1666 94.8876 24.8932C95.0386 24.6198 95.1142 24.2997 95.1142 23.9328C95.1142 23.5587 95.0386 23.2386 94.8876 22.9724C94.7437 22.6991 94.5423 22.4904 94.2833 22.3466C94.0243 22.2027 93.7329 22.1307 93.4092 22.1307C93.0783 22.1307 92.7834 22.2027 92.5244 22.3466C92.2726 22.4904 92.0712 22.6991 91.9201 22.9724C91.769 23.2386 91.6935 23.5587 91.6935 23.9328C91.6935 24.2997 91.769 24.6198 91.9201 24.8932C92.0712 25.1666 92.2726 25.3752 92.5244 25.5191C92.7834 25.6629 93.0747 25.7349 93.3984 25.7349ZM101.033 20.9869C101.494 20.9869 101.904 21.0768 102.263 21.2567C102.63 21.4365 102.918 21.7135 103.127 22.0876C103.335 22.4545 103.44 22.9293 103.44 23.512V26.814H102.091V23.6846C102.091 23.1739 101.968 22.7926 101.724 22.5408C101.487 22.289 101.152 22.1631 100.72 22.1631C100.404 22.1631 100.123 22.2279 99.8787 22.3573C99.6341 22.4868 99.4434 22.6811 99.3068 22.9401C99.1773 23.1918 99.1125 23.512 99.1125 23.9004V26.814H97.7637V21.0517H99.0478V22.6055L98.8212 22.1307C99.0226 21.7638 99.3139 21.4833 99.6952 21.2891C100.084 21.0876 100.53 20.9869 101.033 20.9869ZM106.931 26.8895C106.449 26.8895 105.985 26.8284 105.539 26.7061C105.1 26.5766 104.751 26.4219 104.493 26.242L105.01 25.2169C105.269 25.3824 105.579 25.5191 105.938 25.627C106.298 25.7349 106.658 25.7888 107.018 25.7888C107.442 25.7888 107.748 25.7313 107.935 25.6162C108.129 25.5011 108.226 25.3464 108.226 25.1522C108.226 24.9939 108.161 24.8752 108.032 24.7961C107.902 24.7097 107.733 24.645 107.525 24.6018C107.316 24.5587 107.082 24.5191 106.823 24.4831C106.572 24.4472 106.316 24.4004 106.057 24.3429C105.805 24.2781 105.575 24.1882 105.367 24.0731C105.158 23.9508 104.989 23.7889 104.859 23.5875C104.73 23.3861 104.665 23.1199 104.665 22.789C104.665 22.4221 104.769 22.1056 104.978 21.8394C105.187 21.566 105.478 21.3574 105.852 21.2135C106.233 21.0624 106.683 20.9869 107.201 20.9869C107.589 20.9869 107.982 21.0301 108.377 21.1164C108.773 21.2027 109.1 21.325 109.359 21.4833L108.841 22.5084C108.568 22.343 108.291 22.2315 108.01 22.1739C107.737 22.1092 107.464 22.0768 107.19 22.0768C106.78 22.0768 106.474 22.1379 106.273 22.2602C106.079 22.3825 105.982 22.5372 105.982 22.7242C105.982 22.8969 106.046 23.0264 106.176 23.1127C106.305 23.199 106.474 23.2674 106.683 23.3177C106.892 23.3681 107.122 23.4113 107.374 23.4472C107.633 23.476 107.888 23.5228 108.14 23.5875C108.392 23.6522 108.622 23.7422 108.83 23.8573C109.046 23.9652 109.219 24.1199 109.348 24.3213C109.478 24.5227 109.543 24.7853 109.543 25.109C109.543 25.4687 109.435 25.7816 109.219 26.0478C109.01 26.314 108.712 26.5226 108.323 26.6737C107.935 26.8176 107.471 26.8895 106.931 26.8895Z" fill="white"/>
<path d="M80.0957 15.4067L76.7937 7.85315H78.3152L81.2611 14.6838H80.3871L83.3653 7.85315H84.7681L81.4769 15.4067H80.0957ZM85.4884 15.4067V9.64443H86.8373V15.4067H85.4884ZM86.1682 8.69483C85.9165 8.69483 85.7078 8.6157 85.5424 8.45743C85.3841 8.29917 85.305 8.10853 85.305 7.88552C85.305 7.65531 85.3841 7.46468 85.5424 7.3136C85.7078 7.15534 85.9165 7.07621 86.1682 7.07621C86.42 7.07621 86.6251 7.15174 86.7833 7.30281C86.9488 7.44669 87.0315 7.63014 87.0315 7.85315C87.0315 8.09054 86.9524 8.29197 86.7941 8.45743C86.6359 8.6157 86.4272 8.69483 86.1682 8.69483ZM90.3881 15.4823C89.9062 15.4823 89.4421 15.4211 88.9961 15.2988C88.5573 15.1693 88.2084 15.0147 87.9494 14.8348L88.4674 13.8097C88.7264 13.9752 89.0357 14.1118 89.3954 14.2197C89.7551 14.3277 90.1148 14.3816 90.4745 14.3816C90.8989 14.3816 91.2047 14.3241 91.3917 14.209C91.5859 14.0939 91.683 13.9392 91.683 13.7449C91.683 13.5867 91.6183 13.468 91.4888 13.3889C91.3593 13.3025 91.1903 13.2378 90.9816 13.1946C90.773 13.1515 90.5392 13.1119 90.2802 13.0759C90.0284 13.0399 89.7731 12.9932 89.5141 12.9356C89.2623 12.8709 89.0321 12.781 88.8235 12.6659C88.6148 12.5436 88.4458 12.3817 88.3163 12.1803C88.1868 11.9788 88.1221 11.7127 88.1221 11.3818C88.1221 11.0149 88.2264 10.6983 88.435 10.4322C88.6436 10.1588 88.935 9.95017 89.3091 9.80629C89.6903 9.65522 90.14 9.57968 90.6579 9.57968C91.0464 9.57968 91.4385 9.62284 91.8341 9.70917C92.2298 9.7955 92.5571 9.91779 92.8161 10.0761L92.2981 11.1012C92.0248 10.9357 91.7478 10.8242 91.4672 10.7667C91.1939 10.7019 90.9205 10.6696 90.6471 10.6696C90.2371 10.6696 89.9313 10.7307 89.7299 10.853C89.5357 10.9753 89.4385 11.13 89.4385 11.317C89.4385 11.4897 89.5033 11.6192 89.6328 11.7055C89.7623 11.7918 89.9313 11.8601 90.14 11.9105C90.3486 11.9609 90.5788 12.004 90.8306 12.04C91.0895 12.0688 91.3449 12.1155 91.5967 12.1803C91.8485 12.245 92.0787 12.3349 92.2873 12.45C92.5031 12.558 92.6758 12.7126 92.8053 12.9141C92.9348 13.1155 92.9995 13.3781 92.9995 13.7018C92.9995 14.0615 92.8916 14.3744 92.6758 14.6406C92.4672 14.9068 92.1686 15.1154 91.7802 15.2665C91.3917 15.4103 90.9277 15.4823 90.3881 15.4823ZM94.1611 15.4067V9.64443H95.51V15.4067H94.1611ZM94.841 8.69483C94.5892 8.69483 94.3806 8.6157 94.2151 8.45743C94.0568 8.29917 93.9777 8.10853 93.9777 7.88552C93.9777 7.65531 94.0568 7.46468 94.2151 7.3136C94.3806 7.15534 94.5892 7.07621 94.841 7.07621C95.0928 7.07621 95.2978 7.15174 95.456 7.30281C95.6215 7.44669 95.7042 7.63014 95.7042 7.85315C95.7042 8.09054 95.6251 8.29197 95.4668 8.45743C95.3086 8.6157 95.1 8.69483 94.841 8.69483ZM99.8702 15.4823C99.2803 15.4823 98.7551 15.3564 98.2947 15.1046C97.8343 14.8456 97.471 14.4931 97.2048 14.0471C96.9387 13.6011 96.8056 13.0939 96.8056 12.5256C96.8056 11.9501 96.9387 11.4429 97.2048 11.0041C97.471 10.5581 97.8343 10.2091 98.2947 9.95736C98.7551 9.70557 99.2803 9.57968 99.8702 9.57968C100.467 9.57968 100.996 9.70557 101.456 9.95736C101.924 10.2091 102.287 10.5545 102.546 10.9933C102.812 11.4321 102.946 11.9429 102.946 12.5256C102.946 13.0939 102.812 13.6011 102.546 14.0471C102.287 14.4931 101.924 14.8456 101.456 15.1046C100.996 15.3564 100.467 15.4823 99.8702 15.4823ZM99.8702 14.3277C100.201 14.3277 100.496 14.2557 100.755 14.1118C101.014 13.968 101.215 13.7593 101.359 13.486C101.51 13.2126 101.586 12.8925 101.586 12.5256C101.586 12.1515 101.51 11.8314 101.359 11.5652C101.215 11.2918 101.014 11.0832 100.755 10.9393C100.496 10.7954 100.205 10.7235 99.881 10.7235C99.5501 10.7235 99.2551 10.7954 98.9961 10.9393C98.7443 11.0832 98.5429 11.2918 98.3918 11.5652C98.2408 11.8314 98.1652 12.1515 98.1652 12.5256C98.1652 12.8925 98.2408 13.2126 98.3918 13.486C98.5429 13.7593 98.7443 13.968 98.9961 14.1118C99.2551 14.2557 99.5465 14.3277 99.8702 14.3277ZM107.505 9.57968C107.965 9.57968 108.376 9.6696 108.735 9.84945C109.102 10.0293 109.39 10.3063 109.598 10.6803C109.807 11.0472 109.911 11.522 109.911 12.1047V15.4067H108.563V12.2774C108.563 11.7666 108.44 11.3853 108.196 11.1336C107.958 10.8818 107.624 10.7559 107.192 10.7559C106.876 10.7559 106.595 10.8206 106.35 10.9501C106.106 11.0796 105.915 11.2738 105.779 11.5328C105.649 11.7846 105.584 12.1047 105.584 12.4932V15.4067H104.235V9.64443H105.52V11.1983L105.293 10.7235C105.494 10.3566 105.786 10.0761 106.167 9.88182C106.555 9.6804 107.001 9.57968 107.505 9.57968ZM115.173 15.4067V14.2413L115.097 13.9931V11.9537C115.097 11.558 114.978 11.2523 114.741 11.0364C114.504 10.8134 114.144 10.7019 113.662 10.7019C113.338 10.7019 113.018 10.7523 112.702 10.853C112.392 10.9537 112.13 11.094 111.914 11.2738L111.385 10.2919C111.694 10.0545 112.061 9.87823 112.486 9.76313C112.917 9.64083 113.363 9.57968 113.824 9.57968C114.658 9.57968 115.302 9.78111 115.755 10.184C116.216 10.5796 116.446 11.1947 116.446 12.0292V15.4067H115.173ZM113.36 15.4823C112.928 15.4823 112.551 15.4103 112.227 15.2665C111.903 15.1154 111.651 14.9104 111.471 14.6514C111.299 14.3852 111.212 14.0867 111.212 13.7557C111.212 13.432 111.288 13.1407 111.439 12.8817C111.597 12.6227 111.853 12.4177 112.205 12.2666C112.558 12.1155 113.025 12.04 113.608 12.04H115.281V12.9356H113.705C113.245 12.9356 112.935 13.0112 112.777 13.1622C112.619 13.3061 112.54 13.486 112.54 13.7018C112.54 13.9464 112.637 14.1406 112.831 14.2845C113.025 14.4284 113.295 14.5003 113.64 14.5003C113.971 14.5003 114.266 14.4248 114.525 14.2737C114.791 14.1226 114.982 13.8996 115.097 13.6047L115.324 14.414C115.194 14.7521 114.96 15.0147 114.622 15.2017C114.291 15.3888 113.871 15.4823 113.36 15.4823ZM118.177 15.4067V9.64443H119.461V11.2307L119.31 10.7667C119.483 10.3782 119.753 10.0833 120.119 9.88182C120.494 9.6804 120.958 9.57968 121.511 9.57968V10.8638C121.454 10.8494 121.4 10.8422 121.35 10.8422C121.299 10.835 121.249 10.8314 121.199 10.8314C120.688 10.8314 120.281 10.9825 119.979 11.2846C119.677 11.5796 119.526 12.022 119.526 12.6119V15.4067H118.177ZM123.341 17.5757C123.061 17.5757 122.78 17.5289 122.5 17.4354C122.219 17.3419 121.985 17.2124 121.798 17.0469L122.338 16.0542C122.474 16.1765 122.629 16.2736 122.802 16.3455C122.974 16.4175 123.151 16.4535 123.33 16.4535C123.575 16.4535 123.773 16.3923 123.924 16.27C124.075 16.1477 124.215 15.9427 124.345 15.6549L124.679 14.8996L124.787 14.7377L126.967 9.64443H128.262L125.564 15.8707C125.384 16.3024 125.183 16.6441 124.96 16.8959C124.744 17.1477 124.499 17.3239 124.226 17.4246C123.96 17.5253 123.665 17.5757 123.341 17.5757ZM124.528 15.6118L121.928 9.64443H123.33L125.445 14.619L124.528 15.6118Z" fill="white"/>
</svg>
