<svg width="360" height="288" viewBox="0 0 360 288" fill="none" xmlns="http://www.w3.org/2000/svg">
<g filter="url(#filter0_d_29_338)">
<path d="M319.38 40.541H40.6182C29.5725 40.541 20.6182 49.4953 20.6182 60.541V227.639C20.6182 238.685 29.5724 247.639 40.6181 247.639H319.38C330.425 247.639 339.38 238.685 339.38 227.639V60.541C339.38 49.4953 330.425 40.541 319.38 40.541Z" fill="white"/>
</g>
<path d="M339.999 228.259C339.999 239.304 331.044 248.259 319.999 248.259H39.998C28.9523 248.259 19.998 239.304 19.998 228.259V59.9214C19.998 48.8757 28.9524 39.9214 39.998 39.9214H319.999C331.044 39.9214 339.999 48.8757 339.999 59.9214V228.259ZM21.2371 227.02C21.2371 238.065 30.1914 247.02 41.2371 247.02H318.759C329.805 247.02 338.759 238.065 338.759 227.02V61.1604C338.759 50.1147 329.805 41.1604 318.759 41.1604H41.2371C30.1914 41.1604 21.2371 50.1147 21.2371 61.1604V227.02Z" fill="#E4E4E4"/>
<path d="M159.966 60.7964C169.329 60.9563 169.327 74.8833 159.966 75.0418C150.603 74.8819 150.605 60.9549 159.966 60.7964Z" fill="#3F3D56"/>
<path d="M179.998 60.7964C189.361 60.9563 189.359 74.8833 179.998 75.0418C170.635 74.8819 170.637 60.9549 179.998 60.7964Z" fill="#7D69F9"/>
<path d="M200.03 60.7964C209.393 60.9563 209.392 74.8833 200.03 75.0418C190.668 74.8819 190.669 60.9549 200.03 60.7964Z" fill="#CACACA"/>
<path d="M139.428 115.334H75.6758V116.107H139.428V115.334Z" fill="#CACACA"/>
<path d="M213.733 171.359H166.987V127.703H213.733V171.359ZM167.399 170.948H213.321V128.115H167.399L167.399 170.948Z" fill="#CACACA"/>
<path d="M167.334 127.758L167.053 128.06L213.386 171.304L213.667 171.003L167.334 127.758Z" fill="#CACACA"/>
<path d="M213.387 127.759L167.052 171.001L167.333 171.303L213.668 128.06L213.387 127.759Z" fill="#CACACA"/>
<path d="M284.706 104.516H75.2891V90.2197H284.706V104.516ZM76.0618 103.743H283.933V90.9925H76.0618V103.743Z" fill="#CACACA"/>
<path d="M152.747 167.707H75.9092V153.411H152.747V167.707ZM76.682 166.934H151.974V154.184H76.682V166.934Z" fill="#CACACA"/>
<path d="M152.747 191.869H75.9092V177.573H152.747V191.869ZM76.682 191.096H151.974V178.346H76.682V191.096Z" fill="#CACACA"/>
<path d="M152.747 216.03H75.9092V201.734H152.747V216.03ZM76.682 215.258H151.974V202.507H76.682V215.258Z" fill="#CACACA"/>
<path d="M96.0315 133.049H75.4229C77.0137 126.646 76.8218 119.72 75.4229 112.44H96.0315C94.6046 115.688 93.8678 119.197 93.8678 122.744C93.8678 126.292 94.6046 129.801 96.0315 133.049Z" fill="#7D69F9"/>
<path d="M91.036 116.812H78.5459V119.31H91.036V116.812Z" fill="white"/>
<path d="M91.036 121.808H78.5459V124.306H91.036V121.808Z" fill="white"/>
<path d="M91.036 126.804H78.5459V129.302H91.036V126.804Z" fill="white"/>
<path d="M195.89 137.669H184.906C185.754 134.257 185.652 130.566 184.906 126.686H195.89C195.129 128.417 194.737 130.287 194.737 132.177C194.737 134.068 195.129 135.938 195.89 137.669Z" fill="#7D69F9"/>
<path d="M193.227 129.016H186.57V130.347H193.227V129.016Z" fill="white"/>
<path d="M193.227 131.679H186.57V133.01H193.227V131.679Z" fill="white"/>
<path d="M193.227 134.341H186.57V135.672H193.227V134.341Z" fill="white"/>
<path d="M277.725 120.01H257.116C258.707 113.608 258.515 106.682 257.116 99.4019H277.725C276.298 102.65 275.561 106.159 275.561 109.706C275.561 113.254 276.298 116.763 277.725 120.01Z" fill="#7D69F9"/>
<path d="M272.728 103.773H260.238V106.271H272.728V103.773Z" fill="white"/>
<path d="M272.728 108.77H260.238V111.268H272.728V108.77Z" fill="white"/>
<path d="M272.728 113.766H260.238V116.264H272.728V113.766Z" fill="white"/>
<path d="M217.727 194.233C223.163 172.066 233.934 153.013 251.771 138.085C252.462 136.949 253.574 136.133 254.865 135.817C256.156 135.501 257.52 135.709 258.657 136.397L301.062 162.108C302.197 162.798 303.013 163.911 303.329 165.202C303.645 166.493 303.437 167.856 302.749 168.994C295.941 191.74 285.743 211.477 268.705 225.142C268.015 226.278 266.902 227.093 265.611 227.41C264.32 227.726 262.957 227.518 261.819 226.83L219.415 201.119C218.279 200.428 217.464 199.316 217.147 198.025C216.831 196.734 217.039 195.371 217.727 194.233Z" fill="#F2F2F2"/>
<path opacity="0.2" d="M225.264 201.704C224.129 201.013 223.313 199.901 222.997 198.61C222.68 197.319 222.889 195.955 223.577 194.818C229.013 172.651 239.783 153.597 257.621 138.669C258.078 137.926 258.723 137.317 259.491 136.903L258.657 136.397C257.52 135.709 256.156 135.5 254.865 135.817C253.574 136.133 252.462 136.948 251.771 138.084C233.934 153.012 223.163 172.065 217.727 194.233C217.039 195.37 216.831 196.734 217.147 198.024C217.464 199.315 218.279 200.428 219.415 201.118L261.819 226.829C262.574 227.283 263.435 227.53 264.316 227.544C265.197 227.558 266.066 227.339 266.834 226.909L225.264 201.704Z" fill="black"/>
<path d="M274.993 189.319L246.529 172.168C246.077 171.895 245.752 171.453 245.625 170.94C245.498 170.428 245.58 169.885 245.852 169.433C246.125 168.98 246.566 168.654 247.079 168.527C247.592 168.399 248.134 168.48 248.587 168.753L277.051 185.903C277.502 186.177 277.826 186.618 277.953 187.131C278.079 187.643 277.997 188.185 277.724 188.637C277.452 189.089 277.012 189.414 276.5 189.542C275.988 189.67 275.446 189.59 274.993 189.319Z" fill="white"/>
<path d="M258.435 166.576L252.173 162.803C251.72 162.531 251.392 162.091 251.263 161.578C251.134 161.065 251.214 160.522 251.486 160.068C251.757 159.614 252.198 159.287 252.711 159.158C253.224 159.029 253.767 159.109 254.221 159.38L254.231 159.387L260.494 163.16C260.945 163.434 261.269 163.875 261.395 164.388C261.522 164.9 261.44 165.442 261.167 165.894C260.895 166.346 260.454 166.672 259.942 166.799C259.43 166.927 258.888 166.847 258.435 166.576Z" fill="white"/>
<path d="M270.47 196.827L242.006 179.677C241.554 179.404 241.228 178.963 241.1 178.45C240.972 177.937 241.054 177.395 241.326 176.942C241.598 176.489 242.039 176.162 242.552 176.034C243.064 175.906 243.607 175.987 244.06 176.258L244.064 176.261L272.528 193.412C272.979 193.685 273.304 194.127 273.43 194.639C273.556 195.152 273.474 195.693 273.202 196.145C272.929 196.597 272.489 196.923 271.977 197.051C271.465 197.178 270.923 197.098 270.47 196.827Z" fill="white"/>
<path d="M278.609 156.981C283.2 156.981 286.922 153.259 286.922 148.667C286.922 144.076 283.2 140.354 278.609 140.354C274.017 140.354 270.295 144.076 270.295 148.667C270.295 153.259 274.017 156.981 278.609 156.981Z" fill="#3F3D56"/>
<path d="M264.277 237.752C274.091 237.752 282.047 229.796 282.047 219.982C282.047 210.169 274.091 202.213 264.277 202.213C254.463 202.213 246.508 210.169 246.508 219.982C246.508 229.796 254.463 237.752 264.277 237.752Z" fill="white"/>
<path d="M264.278 237.999C260.715 237.999 257.231 236.943 254.268 234.963C251.305 232.983 248.996 230.169 247.632 226.877C246.269 223.585 245.912 219.962 246.607 216.467C247.302 212.972 249.018 209.762 251.538 207.242C254.058 204.722 257.268 203.006 260.763 202.311C264.258 201.616 267.881 201.973 271.173 203.336C274.465 204.7 277.279 207.009 279.259 209.972C281.239 212.935 282.295 216.419 282.295 219.982C282.29 224.759 280.39 229.339 277.012 232.716C273.635 236.094 269.055 237.994 264.278 237.999ZM264.278 202.461C260.813 202.461 257.425 203.488 254.544 205.414C251.662 207.339 249.416 210.075 248.09 213.277C246.764 216.479 246.417 220.002 247.093 223.4C247.769 226.799 249.438 229.921 251.888 232.372C254.339 234.822 257.461 236.491 260.86 237.167C264.259 237.843 267.782 237.496 270.983 236.17C274.185 234.844 276.921 232.598 278.847 229.717C280.772 226.835 281.8 223.447 281.8 219.982C281.794 215.337 279.947 210.883 276.662 207.598C273.377 204.314 268.923 202.466 264.278 202.461Z" fill="#3F3D56"/>
<path d="M261.854 229.231C261.547 229.231 261.244 229.159 260.97 229.022C260.695 228.885 260.456 228.685 260.272 228.44L255.425 221.976C255.269 221.768 255.155 221.532 255.09 221.28C255.026 221.029 255.011 220.767 255.048 220.51C255.085 220.253 255.172 220.005 255.304 219.782C255.436 219.558 255.611 219.363 255.819 219.207C256.027 219.052 256.263 218.938 256.515 218.874C256.766 218.809 257.028 218.795 257.285 218.832C257.542 218.869 257.79 218.956 258.013 219.089C258.236 219.221 258.432 219.396 258.587 219.604L261.759 223.833L269.905 211.614C270.049 211.398 270.234 211.213 270.449 211.068C270.665 210.924 270.907 210.823 271.162 210.772C271.416 210.721 271.678 210.721 271.933 210.771C272.187 210.822 272.43 210.922 272.646 211.066C272.862 211.21 273.047 211.395 273.192 211.611C273.336 211.826 273.437 212.068 273.487 212.323C273.538 212.577 273.539 212.839 273.488 213.094C273.438 213.349 273.338 213.591 273.194 213.807L263.498 228.35C263.323 228.613 263.087 228.83 262.81 228.983C262.534 229.137 262.225 229.221 261.909 229.23C261.89 229.23 261.872 229.231 261.854 229.231Z" fill="#7D69F9"/>
<defs>
<filter id="filter0_d_29_338" x="-19.3818" y="0.541016" width="398.762" height="287.098" filterUnits="userSpaceOnUse" color-interpolation-filters="sRGB">
<feFlood flood-opacity="0" result="BackgroundImageFix"/>
<feColorMatrix in="SourceAlpha" type="matrix" values="0 0 0 0 0 0 0 0 0 0 0 0 0 0 0 0 0 0 127 0" result="hardAlpha"/>
<feOffset/>
<feGaussianBlur stdDeviation="20"/>
<feComposite in2="hardAlpha" operator="out"/>
<feColorMatrix type="matrix" values="0 0 0 0 0 0 0 0 0 0 0 0 0 0 0 0 0 0 0.08 0"/>
<feBlend mode="normal" in2="BackgroundImageFix" result="effect1_dropShadow_29_338"/>
<feBlend mode="normal" in="SourceGraphic" in2="effect1_dropShadow_29_338" result="shape"/>
</filter>
</defs>
</svg>
